<svg width="1440" height="726" viewBox="0 0 1440 726" fill="none" xmlns="http://www.w3.org/2000/svg">
<g opacity="0.32">
<path d="M265.562 329.548L309.061 199.117H368.946L294.583 404.899C286.357 427.602 273.327 439.185 254.506 439.185C235.685 439.185 222.655 427.602 214.429 404.899L140 199.117H199.885L243.385 329.548C246.28 337.774 250.163 351.792 254.506 371.073C258.849 351.792 262.732 337.774 265.628 329.548H265.562Z" fill="white"/>
<path d="M436.794 199.643H386.122V436.75H436.794V199.643Z" fill="white"/>
<path d="M614.937 199.643H564.265V436.75H614.937V199.643Z" fill="white"/>
<path d="M793.672 439.054H765.309C688.379 439.054 647.71 403.255 647.71 335.604V120.148H698.382V335.604C698.382 363.375 703.515 388.316 765.309 388.316H793.672V438.988V439.054Z" fill="white"/>
<path d="M408.497 518.549H380.134V467.877H408.497C470.291 467.877 475.424 442.936 475.424 415.165V199.643H526.096V415.099C526.096 482.75 485.427 518.549 408.497 518.549Z" fill="white"/>
<path d="M1300 469.525H1252.68V516.841H1300V469.525Z" fill="white"/>
<path d="M435.413 120.148H388.097V167.464H435.413V120.148Z" fill="white"/>
<path d="M524.517 120.148H477.201V167.464H524.517V120.148Z" fill="white"/>
<path d="M613.621 120.148H566.305V167.464H613.621V120.148Z" fill="white"/>
<path d="M1030.58 320.334C1030.58 318.689 1030.38 317.11 1030.32 315.464V314.28C1027.16 251.236 974.973 200.827 911.14 200.827C847.306 200.827 791.632 254.46 791.632 320.334C791.632 386.208 845.266 439.842 911.14 439.842C936.541 439.842 960.035 431.813 979.448 418.257V437.538H1030.38V325.204C1030.38 323.559 1030.65 321.979 1030.65 320.334H1030.58ZM911.074 388.906C873.234 388.906 842.502 358.174 842.502 320.334C842.502 282.495 873.234 251.762 911.074 251.762C948.913 251.762 976.882 279.928 979.383 315.464V325.138C976.882 360.675 947.268 388.84 911.074 388.84V388.906Z" fill="white"/>
<path d="M1300 316.654C1296.84 253.544 1244.66 203.201 1180.82 203.201C1116.99 203.201 1064.47 253.61 1061.31 316.654V439.847H1112.25V316.654C1115.34 281.644 1145.02 254.136 1180.82 254.136C1216.62 254.136 1245.97 281.644 1249.06 316.654V439.847H1300V316.654Z" fill="white"/>
<path d="M571.701 516.836H567.226V471.824H571.701V516.836Z" fill="white"/>
<path d="M592.299 516.836V475.838H582.033V471.824H606.843V475.838H596.708V516.836H592.299Z" fill="white"/>
<path d="M640.602 504.204C640.602 506.902 641.524 509.008 643.3 510.719C645.077 512.364 647.315 513.22 650.013 513.22C652.316 513.22 654.356 512.364 656.067 510.653C657.778 508.942 658.634 506.902 658.634 504.599C658.634 502.756 658.173 501.111 657.252 499.597C656.199 497.952 653.896 496.57 650.21 495.386C645.867 494.004 642.971 492.753 641.524 491.7C638.694 489.529 637.312 486.304 637.312 481.961C637.312 478.736 638.562 476.104 641.129 473.998C643.498 472.024 646.328 471.037 649.618 471.037C653.172 471.037 656.199 472.353 658.634 474.919C660.871 477.288 661.99 479.789 661.99 482.553V483.211H657.581C657.252 480.71 656.33 478.802 654.817 477.486C653.83 476.63 652.908 476.038 652.119 475.775C651.461 475.577 650.408 475.446 649.026 475.446C647.249 475.446 645.604 476.104 644.09 477.486C642.577 478.868 641.853 480.447 641.853 482.224C641.853 485.843 643.366 488.278 646.459 489.66C649.552 490.713 652.645 491.7 655.738 492.688C659.423 494.333 661.858 497.294 662.911 501.44C662.911 501.901 662.977 502.295 663.043 502.69C663.043 503.085 663.109 503.612 663.109 504.27C663.109 507.626 661.99 510.521 659.818 513.088C657.252 516.049 653.896 517.497 649.75 517.497C645.604 517.497 642.445 516.247 639.813 513.812C637.114 511.311 635.733 508.021 635.733 504.138H640.668L640.602 504.204Z" fill="white"/>
<path d="M672.322 499.99C672.322 494.791 674.099 490.513 677.719 487.223C681.009 484.196 684.892 482.682 689.301 482.682C693.71 482.682 697.658 484.196 700.883 487.157C704.634 490.579 706.477 495.12 706.477 500.845V501.766H676.666C676.666 505.386 678.113 508.281 681.009 510.453C683.444 512.296 686.142 513.217 689.103 513.217C691.473 513.217 693.776 512.559 696.079 511.177C698.514 509.729 700.159 507.952 700.883 505.847H705.49C704.108 509.663 701.673 512.691 698.251 514.797C695.289 516.639 692.131 517.56 688.84 517.56C684.036 517.56 680.022 515.849 676.863 512.362C673.77 509.005 672.257 504.859 672.257 499.99H672.322ZM702.199 497.686C701.607 494.659 700.093 492.093 697.724 490.053C695.289 488.013 692.591 486.96 689.498 486.96C685.484 486.96 682.259 488.473 679.759 491.5C677.982 493.672 676.995 495.712 676.797 497.621H702.199V497.686Z" fill="white"/>
<path d="M716.743 500.121C716.743 494.922 718.519 490.645 722.139 487.289C725.429 484.196 729.246 482.682 733.655 482.682C737.275 482.682 740.565 483.472 743.461 485.117C746.883 487.025 749.384 489.789 750.831 493.54H745.764C743.263 489.263 739.183 487.157 733.655 487.157C729.97 487.157 726.943 488.473 724.508 491.171C722.271 493.672 721.152 496.633 721.152 500.121C721.152 503.807 722.402 506.9 724.903 509.4C727.404 511.901 730.497 513.217 734.116 513.217C739.315 513.217 743.198 511.177 745.83 507.097H750.831C749.054 510.585 746.751 513.217 743.987 514.994C741.223 516.771 737.999 517.626 734.379 517.626C729.707 517.626 725.627 515.981 722.139 512.756C718.454 509.4 716.611 505.254 716.611 500.319L716.743 500.121Z" fill="white"/>
<path d="M762.15 503.352V483.543H766.625V502.694C766.625 505.721 767.481 508.287 769.257 510.262C771.1 512.367 773.535 513.42 776.496 513.42C779.721 513.42 782.222 512.236 784.13 509.933C785.841 507.761 786.762 504.997 786.762 501.706V483.543H791.237V516.777H787.091V511.578C786.104 513.552 784.591 515 782.551 516.118C780.642 517.106 778.536 517.632 776.233 517.632C772.482 517.632 769.323 516.448 766.625 514.078C763.664 511.38 762.15 507.827 762.15 503.286V503.352Z" fill="white"/>
<path d="M804.07 516.837V483.406H808.216V488.407C810.058 484.591 813.283 482.682 817.824 482.682V487.289C815.52 487.289 813.48 488.144 811.572 489.789C809.466 491.632 808.479 493.804 808.479 496.304V516.837H804.07Z" fill="white"/>
<path d="M827.366 479.592V471.892H831.841V479.592H827.366ZM827.366 516.839V483.54H831.841V516.839H827.366Z" fill="white"/>
<path d="M848.491 516.839V487.686H841.581V483.606H848.491V471.892H852.966V483.606H860.599V487.686H852.966V516.839H848.491Z" fill="white"/>
<path d="M879.815 515.724L867.246 483.543H871.918L882.579 510.064L893.767 483.543H898.439L879.421 528.425H874.682L879.815 515.724Z" fill="white"/>
<path d="M910.284 485.781H914.693V493.48H910.284V485.781ZM910.284 509.143H914.693V516.842H910.284V509.143Z" fill="white"/>
<path d="M952.665 516.836V471.824H977.014V475.97H957.14V492.158H976.356V496.173H957.14V512.822H977.014V516.836H952.665Z" fill="white"/>
<path d="M989.386 516.838V483.539H993.598V488.475C994.716 486.698 996.164 485.316 998.072 484.263C999.981 483.276 1001.96 482.75 1004.13 482.75C1007.94 482.75 1011.23 484.066 1014.06 486.632C1017.09 489.528 1018.6 493.279 1018.6 497.951V516.772H1014.26V497.951C1014.26 494.792 1013.34 492.226 1011.43 490.252C1009.52 488.277 1007.02 487.224 1003.93 487.224C1000.84 487.224 998.533 488.146 996.69 490.054C994.848 491.963 993.927 494.398 993.927 497.425V516.772H989.452L989.386 516.838Z" fill="white"/>
<path d="M1030.06 500.385C1030.06 495.12 1031.9 490.777 1035.65 487.42C1039.07 484.262 1043.09 482.682 1047.69 482.682C1053.61 482.682 1057.89 485.117 1060.66 490.053V483.603H1064.93V516.902H1060.66V510.519C1059.41 512.822 1057.5 514.599 1055 515.849C1052.69 517.034 1050.13 517.626 1047.36 517.626C1042.43 517.626 1038.35 515.981 1035.06 512.691C1031.77 509.4 1030.12 505.32 1030.12 500.385H1030.06ZM1034.6 499.397C1034.6 503.148 1035.78 506.373 1038.08 509.071C1040.52 511.835 1043.55 513.283 1047.3 513.283C1051.05 513.283 1054.01 512.033 1056.64 509.532C1059.27 507.031 1060.59 504.004 1060.59 500.45C1060.59 496.897 1059.34 493.606 1056.97 491.106C1054.54 488.539 1051.51 487.289 1047.96 487.289C1044.4 487.289 1041.05 488.671 1038.35 491.369C1035.85 493.87 1034.6 496.568 1034.6 499.463V499.397Z" fill="white"/>
<path d="M1077.77 516.836V471.824H1082.37V489.921C1083.62 487.749 1085.33 485.972 1087.64 484.656C1089.94 483.34 1092.31 482.682 1094.81 482.682C1099.75 482.682 1103.96 484.393 1107.51 487.881C1110.87 491.171 1112.51 494.791 1112.51 498.871C1112.51 504.004 1111.06 508.281 1108.24 511.835C1105.08 515.718 1100.93 517.692 1095.73 517.692C1092.64 517.692 1089.87 517.1 1087.44 515.981C1085 514.796 1083.16 513.151 1081.85 510.98V516.836H1077.63H1077.77ZM1081.98 499.134C1081.98 503.477 1083.16 506.899 1085.53 509.4C1087.97 511.967 1091.32 513.217 1095.67 513.217C1099.35 513.217 1102.31 511.835 1104.68 509.005C1106.92 506.373 1108.04 503.214 1108.04 499.463C1108.04 495.975 1106.72 493.08 1104.02 490.645C1101.46 488.276 1098.43 487.157 1094.94 487.157C1092.05 487.157 1089.28 488.144 1086.72 490.053C1083.56 492.422 1082.04 495.449 1082.04 499.134H1081.98Z" fill="white"/>
<path d="M1124.16 516.836V471.824H1128.64V516.836H1124.16Z" fill="white"/>
<path d="M1140.22 499.99C1140.22 494.791 1141.99 490.513 1145.61 487.223C1148.9 484.196 1152.79 482.682 1157.2 482.682C1161.61 482.682 1165.55 484.196 1168.78 487.157C1172.53 490.579 1174.37 495.12 1174.37 500.845V501.766H1144.56C1144.56 505.386 1146.01 508.281 1148.9 510.453C1151.34 512.296 1154.04 513.217 1157 513.217C1159.37 513.217 1161.67 512.559 1163.97 511.177C1166.41 509.729 1168.05 507.952 1168.78 505.847H1173.39C1172 509.663 1169.57 512.691 1166.15 514.797C1163.18 516.639 1160.03 517.56 1156.74 517.56C1151.93 517.56 1147.92 515.849 1144.76 512.362C1141.67 509.005 1140.15 504.859 1140.15 499.99H1140.22ZM1170.09 497.686C1169.5 494.659 1167.99 492.093 1165.62 490.053C1163.18 488.013 1160.49 486.96 1157.39 486.96C1153.38 486.96 1150.15 488.473 1147.65 491.5C1145.88 493.672 1144.89 495.712 1144.69 497.621H1170.09V497.686Z" fill="white"/>
<path d="M1184.7 498.676C1184.7 494.069 1186.55 490.187 1190.17 487.094C1193.52 484.198 1197.34 482.75 1201.49 482.75C1207.67 482.75 1212.21 484.988 1215.17 489.463V471.892H1219.58V516.905H1215.37V510.521C1212.21 515.26 1207.67 517.629 1201.68 517.629C1197.34 517.629 1193.46 515.852 1190.1 512.364C1186.48 508.613 1184.7 504.072 1184.7 498.676ZM1189.24 498.281C1189.18 498.742 1189.11 499.071 1189.11 499.268V500.058C1189.11 503.414 1190.36 506.441 1192.86 509.139C1195.36 511.838 1198.46 513.22 1202.08 513.22C1205.89 513.22 1209.05 511.903 1211.62 509.271C1214.12 506.705 1215.37 503.48 1215.37 499.663C1215.37 497.031 1214.38 494.53 1212.48 492.029C1209.97 488.805 1206.49 487.16 1202.08 487.16C1199.38 487.16 1196.88 487.949 1194.64 489.529C1191.75 491.503 1189.9 494.464 1189.24 498.281Z" fill="white"/>
</g>
<rect y="0.147949" width="1440" height="1076" fill="url(#paint0_linear_3007_8497)"/>
<defs>
<linearGradient id="paint0_linear_3007_8497" x1="720" y1="120.148" x2="720" y2="412.148" gradientUnits="userSpaceOnUse">
<stop stop-color="#191624"/>
<stop offset="0.55" stop-color="#191624" stop-opacity="0.64"/>
<stop offset="1" stop-color="#191624"/>
</linearGradient>
</defs>
</svg>
