<svg width="729" height="844" viewBox="0 0 729 844" fill="none" xmlns="http://www.w3.org/2000/svg">
<g style="mix-blend-mode:hard-light" opacity="0.56" clip-path="url(#clip0_36_875)" filter="url(#filter0_f_36_875)">
<path d="M-432 588L473 588L473 -317L-432 -317L-432 588Z" fill="black"/>
<path d="M-432 588L473 588L473 -317L-432 -317L-432 588Z" fill="#907CFF" fill-opacity="0.387813"/>
<mask id="mask0_36_875" style="mask-type:luminance" maskUnits="userSpaceOnUse" x="-432" y="-317" width="906" height="905">
<path d="M-432 588L473 588L473 -317L-432 -317L-432 588Z" fill="white"/>
</mask>
<g mask="url(#mask0_36_875)">
<g filter="url(#filter1_f_36_875)">
<path d="M-291.725 435.847L415.306 435.847L415.306 -125.819L-291.725 -125.819L-291.725 435.847Z" fill="#00AEEF"/>
<path d="M-391.841 556.891L238.266 556.891L238.266 73.2812L-391.841 73.2812L-391.841 556.891Z" fill="#F89B29"/>
<path d="M-643.544 504.287L54.4375 504.288L54.4375 -25.7031L-643.544 -25.7032L-643.544 504.287Z" fill="#00AEEF"/>
<path d="M-335.844 152.469L160.209 152.469L160.209 -319.263L-335.844 -319.263L-335.844 152.469Z" fill="#F89B29"/>
</g>
</g>
</g>
<defs>
<filter id="filter0_f_36_875" x="-688" y="-573" width="1417" height="1417" filterUnits="userSpaceOnUse" color-interpolation-filters="sRGB">
<feFlood flood-opacity="0" result="BackgroundImageFix"/>
<feBlend mode="normal" in="SourceGraphic" in2="BackgroundImageFix" result="shape"/>
<feGaussianBlur stdDeviation="128" result="effect1_foregroundBlur_36_875"/>
</filter>
<filter id="filter1_f_36_875" x="-926.356" y="-602.075" width="1624.48" height="1441.78" filterUnits="userSpaceOnUse" color-interpolation-filters="sRGB">
<feFlood flood-opacity="0" result="BackgroundImageFix"/>
<feBlend mode="normal" in="SourceGraphic" in2="BackgroundImageFix" result="shape"/>
<feGaussianBlur stdDeviation="141.406" result="effect1_foregroundBlur_36_875"/>
</filter>
<clipPath id="clip0_36_875">
<rect width="905" height="905" fill="white" transform="translate(473 588) rotate(-180)"/>
</clipPath>
</defs>
</svg>
