<svg width="240" height="240" viewBox="0 0 240 240" fill="none" xmlns="http://www.w3.org/2000/svg">
<path d="M239.581 120.333C239.581 118.688 239.384 117.109 239.318 115.463V114.279C236.159 51.2347 183.973 0.825684 120.139 0.825684C56.3055 0.825684 0.631836 54.4593 0.631836 120.333C0.631836 186.207 54.2655 239.841 120.139 239.841C145.541 239.841 169.035 231.812 188.448 218.256V237.537H239.384V125.203C239.384 123.558 239.647 121.978 239.647 120.333H239.581ZM120.074 188.905C82.2339 188.905 51.5015 158.173 51.5015 120.333C51.5015 82.4936 82.2339 51.7612 120.074 51.7612C157.913 51.7612 185.882 79.927 188.382 115.463V125.137C185.882 160.674 156.268 188.839 120.074 188.839V188.905Z" fill="white"/>
</svg>
