<svg width="19" height="18" viewBox="0 0 19 18" fill="none" xmlns="http://www.w3.org/2000/svg">
<path d="M2.55485 8.25979C2.20968 8.26076 1.87183 8.35944 1.5804 8.5444C1.28896 8.72937 1.05586 8.99306 0.908038 9.30499C0.760221 9.61691 0.703737 9.96431 0.74512 10.307C0.786504 10.6497 0.924065 10.9736 1.14189 11.2414L5.78535 16.9296C5.95091 17.1352 6.16314 17.2983 6.40439 17.4054C6.64565 17.5125 6.90898 17.5605 7.1725 17.5454C7.73612 17.5151 8.24496 17.2136 8.56939 16.7179L18.215 1.18356C18.2166 1.18099 18.2183 1.17841 18.22 1.17587C18.3105 1.03691 18.2811 0.761525 18.0943 0.588525C18.043 0.541017 17.9825 0.504518 17.9165 0.481275C17.8506 0.458032 17.7806 0.448537 17.7108 0.453377C17.641 0.458216 17.573 0.477286 17.5109 0.509412C17.4488 0.541538 17.3939 0.586041 17.3496 0.640179C17.3462 0.644435 17.3426 0.648627 17.3389 0.652756L7.61116 11.6437C7.57414 11.6855 7.52918 11.7196 7.4789 11.7439C7.42861 11.7682 7.374 11.7822 7.31823 11.7852C7.26246 11.7883 7.20664 11.7802 7.15403 11.7614C7.10141 11.7427 7.05304 11.7137 7.01173 11.6761L3.78327 8.73818C3.44797 8.43081 3.00972 8.26014 2.55485 8.25979Z" fill="#00AEEF"/>
</svg>
