<svg width="535" height="223" viewBox="0 0 535 223" fill="none" xmlns="http://www.w3.org/2000/svg">
<g clip-path="url(#clip0_3676_1295)">
<g clip-path="url(#clip1_3676_1295)">
<line x1="64.6042" y1="-121.711" x2="64.6042" y2="514.289" stroke="#E6F7FD" stroke-width="0.6625"/>
<line x1="128.204" y1="-121.711" x2="128.204" y2="514.289" stroke="#E6F7FD" stroke-width="0.6625"/>
<line x1="191.804" y1="-121.711" x2="191.804" y2="514.289" stroke="#E6F7FD" stroke-width="0.6625"/>
<line x1="255.404" y1="-121.711" x2="255.404" y2="514.289" stroke="#E6F7FD" stroke-width="0.6625"/>
<line x1="319.004" y1="-121.711" x2="319.004" y2="514.289" stroke="#E6F7FD" stroke-width="0.6625"/>
<line x1="382.604" y1="-121.711" x2="382.604" y2="514.289" stroke="#E6F7FD" stroke-width="0.6625"/>
<line x1="446.204" y1="-121.711" x2="446.204" y2="514.289" stroke="#E6F7FD" stroke-width="0.6625"/>
<line x1="509.804" y1="-121.711" x2="509.804" y2="514.289" stroke="#E6F7FD" stroke-width="0.6625"/>
</g>
<g clip-path="url(#clip2_3676_1295)">
<line x1="0.672852" y1="5.15776" x2="636.673" y2="5.15776" stroke="#E6F7FD" stroke-width="0.6625"/>
<line x1="0.672852" y1="68.7579" x2="636.673" y2="68.7579" stroke="#E6F7FD" stroke-width="0.6625"/>
<line x1="0.672852" y1="132.358" x2="636.673" y2="132.358" stroke="#E6F7FD" stroke-width="0.6625"/>
<line x1="0.672852" y1="195.958" x2="636.673" y2="195.958" stroke="#E6F7FD" stroke-width="0.6625"/>
</g>
</g>
<defs>
<clipPath id="clip0_3676_1295">
<rect width="636" height="636" fill="white" transform="translate(0.672852 -121.711)"/>
</clipPath>
<clipPath id="clip1_3676_1295">
<rect width="636" height="636" fill="white" transform="translate(0.672852 -121.711)"/>
</clipPath>
<clipPath id="clip2_3676_1295">
<rect width="636" height="636" fill="white" transform="translate(0.672852 -121.711)"/>
</clipPath>
</defs>
</svg>
