<svg xmlns="http://www.w3.org/2000/svg" width="1440" height="1076" viewBox="0 0 1440 1076" fill="none"><g opacity="0.32"><path d="M265.562 329.4L309.061 198.969H368.946L294.583 404.751C286.357 427.455 273.327 439.037 254.506 439.037C235.685 439.037 222.655 427.455 214.429 404.751L140 198.969H199.885L243.385 329.4C246.28 337.626 250.163 351.644 254.506 370.925C258.849 351.644 262.732 337.626 265.628 329.4H265.562Z" fill="white"></path><path d="M436.795 199.496H386.123V436.602H436.795V199.496Z" fill="white"></path><path d="M614.938 199.496H564.266V436.602H614.938V199.496Z" fill="white"></path><path d="M793.671 438.906H765.308C688.378 438.906 647.709 403.107 647.709 335.456V120H698.381V335.456C698.381 363.227 703.514 388.168 765.308 388.168H793.671V438.84V438.906Z" fill="white"></path><path d="M408.496 518.402H380.133V467.73H408.496C470.29 467.73 475.423 442.788 475.423 415.017V199.496H526.095V414.951C526.095 482.602 485.426 518.402 408.496 518.402Z" fill="white"></path><path d="M1300 469.377H1252.68V516.693H1300V469.377Z" fill="white"></path><path d="M435.412 120H388.096V167.316H435.412V120Z" fill="white"></path><path d="M524.517 120H477.201V167.316H524.517V120Z" fill="white"></path><path d="M613.621 120H566.305V167.316H613.621V120Z" fill="white"></path><path d="M1030.58 320.186C1030.58 318.541 1030.38 316.962 1030.32 315.316V314.132C1027.16 251.088 974.974 200.679 911.14 200.679C847.307 200.679 791.633 254.312 791.633 320.186C791.633 386.06 845.266 439.694 911.14 439.694C936.542 439.694 960.036 431.665 979.449 418.109V437.391H1030.38V325.056C1030.38 323.411 1030.65 321.831 1030.65 320.186H1030.58ZM911.075 388.758C873.235 388.758 842.503 358.026 842.503 320.186C842.503 282.347 873.235 251.614 911.075 251.614C948.914 251.614 976.883 279.78 979.383 315.316V324.99C976.883 360.527 947.269 388.693 911.075 388.693V388.758Z" fill="white"></path><path d="M1300 316.506C1296.84 253.396 1244.66 203.053 1180.82 203.053C1116.99 203.053 1064.47 253.462 1061.31 316.506V439.699H1112.25V316.506C1115.34 281.496 1145.02 253.988 1180.82 253.988C1216.62 253.988 1245.97 281.496 1249.07 316.506V439.699H1300V316.506Z" fill="white"></path><path d="M571.702 516.689H567.227V471.676H571.702V516.689Z" fill="white"></path><path d="M592.299 516.689V475.69H582.033V471.676H606.843V475.69H596.708V516.689H592.299Z" fill="white"></path><path d="M640.602 504.056C640.602 506.754 641.524 508.86 643.3 510.571C645.077 512.216 647.315 513.072 650.013 513.072C652.316 513.072 654.356 512.216 656.067 510.505C657.778 508.794 658.634 506.754 658.634 504.451C658.634 502.608 658.173 500.963 657.252 499.449C656.199 497.804 653.895 496.422 650.21 495.238C645.867 493.856 642.971 492.605 641.524 491.552C638.694 489.381 637.312 486.156 637.312 481.813C637.312 478.588 638.562 475.956 641.129 473.85C643.498 471.876 646.328 470.889 649.618 470.889C653.172 470.889 656.199 472.205 658.634 474.771C660.871 477.14 661.99 479.641 661.99 482.405V483.063H657.581C657.252 480.562 656.33 478.654 654.817 477.338C653.83 476.482 652.908 475.89 652.119 475.627C651.461 475.429 650.408 475.298 649.026 475.298C647.249 475.298 645.604 475.956 644.09 477.338C642.576 478.72 641.853 480.299 641.853 482.076C641.853 485.696 643.366 488.13 646.459 489.512C649.552 490.565 652.645 491.552 655.738 492.54C659.423 494.185 661.858 497.146 662.911 501.292C662.911 501.753 662.977 502.148 663.043 502.542C663.043 502.937 663.109 503.464 663.109 504.122C663.109 507.478 661.99 510.374 659.818 512.94C657.252 515.901 653.895 517.349 649.75 517.349C645.604 517.349 642.445 516.099 639.812 513.664C637.114 511.163 635.732 507.873 635.732 503.99H640.668L640.602 504.056Z" fill="white"></path><path d="M672.322 499.842C672.322 494.643 674.098 490.366 677.718 487.075C681.008 484.048 684.891 482.534 689.3 482.534C693.709 482.534 697.658 484.048 700.882 487.009C704.633 490.431 706.476 494.972 706.476 500.697V501.619H676.665C676.665 505.238 678.113 508.134 681.008 510.305C683.443 512.148 686.141 513.069 689.103 513.069C691.472 513.069 693.775 512.411 696.078 511.029C698.513 509.582 700.159 507.805 700.882 505.699H705.489C704.107 509.516 701.672 512.543 698.25 514.649C695.289 516.491 692.13 517.413 688.84 517.413C684.036 517.413 680.021 515.702 676.862 512.214C673.769 508.858 672.256 504.712 672.256 499.842H672.322ZM702.199 497.539C701.606 494.511 700.093 491.945 697.724 489.905C695.289 487.865 692.591 486.812 689.498 486.812C685.483 486.812 682.259 488.326 679.758 491.353C677.981 493.524 676.994 495.564 676.797 497.473H702.199V497.539Z" fill="white"></path><path d="M716.743 499.974C716.743 494.775 718.52 490.497 722.139 487.141C725.43 484.048 729.246 482.534 733.656 482.534C737.275 482.534 740.565 483.324 743.461 484.969C746.883 486.878 749.384 489.642 750.832 493.393H745.764C743.264 489.115 739.183 487.009 733.656 487.009C729.97 487.009 726.943 488.326 724.508 491.024C722.271 493.524 721.152 496.486 721.152 499.974C721.152 503.659 722.402 506.752 724.903 509.253C727.404 511.753 730.497 513.069 734.116 513.069C739.315 513.069 743.198 511.029 745.83 506.949H750.832C749.055 510.437 746.751 513.069 743.987 514.846C741.224 516.623 737.999 517.479 734.38 517.479C729.707 517.479 725.627 515.833 722.139 512.609C718.454 509.253 716.611 505.107 716.611 500.171L716.743 499.974Z" fill="white"></path><path d="M762.15 503.204V483.396H766.625V502.546C766.625 505.573 767.481 508.139 769.258 510.114C771.1 512.219 773.535 513.272 776.497 513.272C779.721 513.272 782.222 512.088 784.13 509.785C785.841 507.613 786.763 504.849 786.763 501.559V483.396H791.238V516.629H787.092V511.43C786.105 513.404 784.591 514.852 782.551 515.971C780.642 516.958 778.537 517.484 776.233 517.484C772.482 517.484 769.323 516.3 766.625 513.93C763.664 511.232 762.15 507.679 762.15 503.138V503.204Z" fill="white"></path><path d="M804.07 516.689V483.258H808.216V488.259C810.059 484.443 813.283 482.534 817.824 482.534V487.141C815.521 487.141 813.481 487.996 811.572 489.641C809.467 491.484 808.479 493.656 808.479 496.156V516.689H804.07Z" fill="white"></path><path d="M827.367 479.444V471.744H831.842V479.444H827.367ZM827.367 516.691V483.392H831.842V516.691H827.367Z" fill="white"></path><path d="M848.49 516.691V487.538H841.58V483.458H848.49V471.744H852.965V483.458H860.599V487.538H852.965V516.691H848.49Z" fill="white"></path><path d="M879.815 515.576L867.246 483.396H871.918L882.579 509.916L893.767 483.396H898.439L879.421 528.277H874.682L879.815 515.576Z" fill="white"></path><path d="M910.285 485.633H914.694V493.332H910.285V485.633ZM910.285 508.995H914.694V516.694H910.285V508.995Z" fill="white"></path><path d="M952.664 516.689V471.676H977.013V475.822H957.139V492.01H976.355V496.025H957.139V512.674H977.013V516.689H952.664Z" fill="white"></path><path d="M989.387 516.69V483.391H993.598V488.327C994.717 486.55 996.165 485.168 998.073 484.115C999.982 483.128 1001.96 482.602 1004.13 482.602C1007.94 482.602 1011.24 483.918 1014.06 486.484C1017.09 489.38 1018.61 493.131 1018.61 497.803V516.624H1014.26V497.803C1014.26 494.644 1013.34 492.078 1011.43 490.104C1009.52 488.129 1007.02 487.077 1003.93 487.077C1000.84 487.077 998.534 487.998 996.691 489.906C994.849 491.815 993.927 494.25 993.927 497.277V516.624H989.452L989.387 516.69Z" fill="white"></path><path d="M1030.05 500.237C1030.05 494.972 1031.9 490.629 1035.65 487.273C1039.07 484.114 1043.08 482.534 1047.69 482.534C1053.61 482.534 1057.89 484.969 1060.66 489.905V483.456H1064.93V516.755H1060.66V510.371C1059.41 512.675 1057.5 514.451 1055 515.702C1052.69 516.886 1050.13 517.479 1047.36 517.479C1042.43 517.479 1038.35 515.833 1035.06 512.543C1031.77 509.253 1030.12 505.172 1030.12 500.237H1030.05ZM1034.6 499.25C1034.6 503.001 1035.78 506.225 1038.08 508.923C1040.52 511.687 1043.55 513.135 1047.3 513.135C1051.05 513.135 1054.01 511.885 1056.64 509.384C1059.27 506.883 1060.59 503.856 1060.59 500.303C1060.59 496.749 1059.34 493.459 1056.97 490.958C1054.54 488.391 1051.51 487.141 1047.95 487.141C1044.4 487.141 1041.04 488.523 1038.35 491.221C1035.85 493.722 1034.6 496.42 1034.6 499.315V499.25Z" fill="white"></path><path d="M1077.77 516.689V471.676H1082.37V489.773C1083.62 487.601 1085.33 485.825 1087.64 484.508C1089.94 483.192 1092.31 482.534 1094.81 482.534C1099.75 482.534 1103.96 484.245 1107.51 487.733C1110.87 491.023 1112.51 494.643 1112.51 498.723C1112.51 503.856 1111.07 508.133 1108.24 511.687C1105.08 515.57 1100.93 517.544 1095.73 517.544C1092.64 517.544 1089.88 516.952 1087.44 515.833C1085.01 514.649 1083.16 513.003 1081.85 510.832V516.689H1077.63H1077.77ZM1081.98 498.986C1081.98 503.329 1083.16 506.752 1085.53 509.252C1087.97 511.819 1091.32 513.069 1095.67 513.069C1099.35 513.069 1102.31 511.687 1104.68 508.857C1106.92 506.225 1108.04 503.066 1108.04 499.315C1108.04 495.827 1106.72 492.932 1104.02 490.497C1101.46 488.128 1098.43 487.009 1094.94 487.009C1092.05 487.009 1089.28 487.996 1086.72 489.905C1083.56 492.274 1082.04 495.301 1082.04 498.986H1081.98Z" fill="white"></path><path d="M1124.16 516.689V471.676H1128.64V516.689H1124.16Z" fill="white"></path><path d="M1140.22 499.842C1140.22 494.643 1141.99 490.365 1145.61 487.075C1148.9 484.048 1152.79 482.534 1157.2 482.534C1161.61 482.534 1165.55 484.048 1168.78 487.009C1172.53 490.431 1174.37 494.972 1174.37 500.697V501.619H1144.56C1144.56 505.238 1146.01 508.134 1148.9 510.305C1151.34 512.148 1154.04 513.069 1157 513.069C1159.37 513.069 1161.67 512.411 1163.97 511.029C1166.41 509.581 1168.06 507.805 1168.78 505.699H1173.39C1172 509.516 1169.57 512.543 1166.15 514.649C1163.19 516.491 1160.03 517.412 1156.74 517.412C1151.93 517.412 1147.92 515.701 1144.76 512.214C1141.67 508.857 1140.15 504.712 1140.15 499.842H1140.22ZM1170.1 497.538C1169.5 494.511 1167.99 491.945 1165.62 489.905C1163.19 487.865 1160.49 486.812 1157.39 486.812C1153.38 486.812 1150.16 488.325 1147.65 491.352C1145.88 493.524 1144.89 495.564 1144.69 497.473H1170.1V497.538Z" fill="white"></path><path d="M1184.71 498.528C1184.71 493.921 1186.55 490.039 1190.17 486.946C1193.52 484.05 1197.34 482.602 1201.49 482.602C1207.67 482.602 1212.21 484.84 1215.17 489.315V471.744H1219.58V516.757H1215.37V510.374C1212.21 515.112 1207.67 517.481 1201.68 517.481C1197.34 517.481 1193.46 515.704 1190.1 512.216C1186.48 508.465 1184.71 503.924 1184.71 498.528ZM1189.25 498.133C1189.18 498.594 1189.11 498.923 1189.11 499.12V499.91C1189.11 503.266 1190.36 506.293 1192.87 508.992C1195.37 511.69 1198.46 513.072 1202.08 513.072C1205.9 513.072 1209.05 511.755 1211.62 509.123C1214.12 506.557 1215.37 503.332 1215.37 499.515C1215.37 496.883 1214.38 494.382 1212.48 491.881C1209.98 488.657 1206.49 487.012 1202.08 487.012C1199.38 487.012 1196.88 487.801 1194.64 489.381C1191.75 491.355 1189.9 494.316 1189.25 498.133Z" fill="white"></path></g><rect width="1440" height="1076" fill="url(#paint0_linear_353_4100)"></rect><defs><linearGradient id="paint0_linear_353_4100" x1="720" y1="120" x2="720" y2="412" gradientUnits="userSpaceOnUse"><stop stop-color="#191624"></stop><stop offset="0.55" stop-color="#191624" stop-opacity="0.64"></stop><stop offset="1" stop-color="#191624"></stop></linearGradient></defs></svg>