<svg width="143" height="144" viewBox="0 0 143 144" fill="none" xmlns="http://www.w3.org/2000/svg">
<path d="M50.2897 11.2626C22.323 27.4932 -8.20579 54.5174 3.22982 79.593C11.941 98.6941 52.1577 81.7235 52.1628 98.3617C52.1853 170.055 129.281 147.04 141.518 99.3582C147.35 76.6335 115.877 69.1742 108.691 51.7367C103.987 40.3224 126.839 34.4165 126.914 21.0132C127.06 -4.97311 78.6469 -5.19474 50.2897 11.2626Z" fill="url(#paint0_linear_3004_2772)"/>
<path opacity="0.1" d="M135.128 84.4145L122.501 71.7872C128.825 62.484 127.869 49.7125 119.622 41.4651C110.286 32.1291 95.1493 32.1291 85.8133 41.4651C76.4775 50.8012 76.4775 65.9378 85.8133 75.2736C94.0606 83.521 106.832 84.4772 116.135 78.1533L128.763 90.7806C129.861 91.8789 131.642 91.8789 132.74 90.7806L135.128 88.3922C136.227 87.2936 136.227 85.5128 135.128 84.4145Z" fill="#00AEEF"/>
<path opacity="0.1" d="M124.923 118.664H9.86059C8.30725 118.664 7.0481 119.924 7.0481 121.477V124.357C7.0481 127.464 9.56641 129.982 12.6731 129.982H122.11C125.217 129.982 127.735 127.464 127.735 124.357V121.477C127.735 119.924 126.476 118.664 124.923 118.664Z" fill="#00AEEF"/>
<path d="M121.24 47.7231V119.687H13.5436V47.7231C13.5436 43.8419 16.6936 40.6919 20.5748 40.6919H114.208C118.09 40.6919 121.24 43.8419 121.24 47.7231Z" fill="#B0E6FA"/>
<path fill-rule="evenodd" clip-rule="evenodd" d="M121.239 74.9207C122.016 74.9207 122.645 75.5503 122.645 76.3269V110.687C122.645 111.464 122.016 112.093 121.239 112.093C120.462 112.093 119.833 111.464 119.833 110.687V76.3269C119.833 75.5503 120.462 74.9207 121.239 74.9207Z" fill="#00AEEF"/>
<path fill-rule="evenodd" clip-rule="evenodd" d="M12.1379 47.7243C12.1379 43.0644 15.9155 39.2868 20.5754 39.2868H64.5898C65.3665 39.2868 65.9961 39.9164 65.9961 40.6931C65.9961 41.4697 65.3665 42.0993 64.5898 42.0993H20.5754C17.4688 42.0993 14.9504 44.6177 14.9504 47.7243V89.6513C14.9504 90.428 14.3208 91.0576 13.5441 91.0576C12.7675 91.0576 12.1379 90.428 12.1379 89.6513V47.7243Z" fill="#00AEEF"/>
<path fill-rule="evenodd" clip-rule="evenodd" d="M13.5441 94.6462C14.3208 94.6462 14.9504 95.2758 14.9504 96.0525V110.687C14.9504 111.463 14.3208 112.093 13.5441 112.093C12.7675 112.093 12.1379 111.463 12.1379 110.687V96.0525C12.1379 95.2758 12.7675 94.6462 13.5441 94.6462Z" fill="#00AEEF"/>
<path d="M127.735 114.164V117.044C127.735 120.151 125.217 122.669 122.11 122.669H12.6731C9.56641 122.669 7.0481 120.151 7.0481 117.044V114.164C7.0481 112.611 8.30725 111.352 9.86059 111.352H53.803C55.3564 111.352 56.6155 112.611 56.6155 114.164V114.479C56.6155 116.033 57.8747 117.292 59.428 117.292H75.3524C76.9057 117.292 78.1649 116.033 78.1649 114.479V114.164C78.1649 112.611 79.424 111.352 80.9774 111.352H124.923C126.476 111.352 127.735 112.611 127.735 114.164Z" fill="url(#paint1_linear_3004_2772)"/>
<path fill-rule="evenodd" clip-rule="evenodd" d="M9.86059 112.758C9.0839 112.758 8.45434 113.388 8.45434 114.164V117.044C8.45434 119.374 10.3431 121.263 12.6731 121.263H122.11C124.44 121.263 126.329 119.374 126.329 117.044V114.164C126.329 113.388 125.699 112.758 124.923 112.758H80.9774C80.2007 112.758 79.5711 113.388 79.5711 114.164V114.479C79.5711 116.809 77.6824 118.698 75.3524 118.698H59.428C57.098 118.698 55.2093 116.809 55.2093 114.479V114.164C55.2093 113.388 54.5797 112.758 53.803 112.758H9.86059ZM5.64185 114.164C5.64185 111.834 7.5306 109.946 9.86059 109.946H53.803C56.133 109.946 58.0218 111.834 58.0218 114.164V114.479C58.0218 115.256 58.6513 115.886 59.428 115.886H75.3524C76.1291 115.886 76.7586 115.256 76.7586 114.479V114.164C76.7586 111.834 78.6474 109.946 80.9774 109.946H124.923C127.253 109.946 129.141 111.834 129.141 114.164V117.044C129.141 120.928 125.993 124.076 122.11 124.076H12.6731C8.78976 124.076 5.64185 120.928 5.64185 117.044V114.164Z" fill="#00AEEF"/>
<path d="M111.092 104.892H23.6915C22.1382 104.892 20.879 103.633 20.879 102.08V50.8153C20.879 49.262 22.1382 48.0028 23.6915 48.0028H111.092C112.645 48.0028 113.904 49.262 113.904 50.8153V102.08C113.904 103.633 112.645 104.892 111.092 104.892Z" fill="url(#paint2_linear_3004_2772)"/>
<path d="M135.128 81.0796L132.74 83.468C131.642 84.5662 129.861 84.5662 128.762 83.468L112.362 67.0672L118.728 60.7014L135.128 77.1021C136.227 78.2004 136.227 79.9813 135.128 81.0796Z" fill="#B0E6FA"/>
<path d="M125.045 79.7509L128.763 83.4682C129.861 84.5665 131.642 84.5665 132.74 83.4682L135.128 81.0798C136.227 79.9816 136.227 78.2007 135.128 77.1024L131.411 73.3851L125.045 79.7509Z" fill="url(#paint3_linear_3004_2772)"/>
<path fill-rule="evenodd" clip-rule="evenodd" d="M121.667 63.6409C122.216 63.0917 123.107 63.0917 123.656 63.6409L136.123 76.1078C137.77 77.7553 137.77 80.4266 136.123 82.074L133.734 84.4624C132.087 86.1098 129.416 86.1098 127.768 84.4624L115.68 72.374C115.131 71.8248 115.131 70.9344 115.68 70.3853C116.229 69.8361 117.119 69.8361 117.669 70.3853L129.757 82.4736C130.306 83.0228 131.197 83.0228 131.746 82.4736L134.134 80.0853C134.683 79.5362 134.683 78.6457 134.134 78.0966L121.667 65.6296C121.118 65.0804 121.118 64.1901 121.667 63.6409Z" fill="#00AEEF"/>
<path d="M102.717 74.9633C115.92 74.9633 126.624 64.2601 126.624 51.057C126.624 37.854 115.92 27.1508 102.717 27.1508C89.5143 27.1508 78.8112 37.854 78.8112 51.057C78.8112 64.2601 89.5143 74.9633 102.717 74.9633Z" fill="#B0E6FA"/>
<path fill-rule="evenodd" clip-rule="evenodd" d="M101.745 25.7675C108.54 25.5076 115.426 27.968 120.616 33.1584C130.501 43.0433 130.501 59.0703 120.616 68.9556C110.731 78.8408 94.704 78.8408 84.8188 68.9556C79.8766 64.0134 77.4049 57.5327 77.4049 51.057C77.4049 50.2803 78.0345 49.6507 78.8112 49.6507C79.5878 49.6507 80.2174 50.2803 80.2174 51.057C80.2174 56.8173 82.4139 62.5732 86.8075 66.9668C95.5944 75.7537 109.841 75.7537 118.627 66.9668L119.622 67.9612L118.627 66.9668C127.414 58.1799 127.414 43.9337 118.627 35.1471L119.622 34.1527L118.627 35.1471C114.014 30.5342 107.899 28.3467 101.852 28.5779C101.076 28.6076 100.423 28.0025 100.393 27.2264C100.364 26.4503 100.969 25.7971 101.745 25.7675Z" fill="#00AEEF"/>
<path d="M102.717 68.6352C112.426 68.6352 120.295 60.7652 120.295 51.057C120.295 41.3489 112.426 33.4789 102.717 33.4789C93.0093 33.4789 85.1393 41.3489 85.1393 51.057C85.1393 60.7652 93.0093 68.6352 102.717 68.6352Z" fill="url(#paint4_linear_3004_2772)"/>
<path fill-rule="evenodd" clip-rule="evenodd" d="M111.911 44.993C112.286 45.6729 112.039 46.5284 111.36 46.9038L106.48 49.5982C105.801 49.9736 104.945 49.7268 104.57 49.047C104.194 48.3671 104.441 47.5116 105.121 47.1362L110 44.4418C110.68 44.0663 111.535 44.3131 111.911 44.993Z" fill="#00AEEF"/>
<path fill-rule="evenodd" clip-rule="evenodd" d="M113.877 50.05C114.011 50.815 113.499 51.5436 112.734 51.6772L107.652 52.5652C106.887 52.6988 106.158 52.187 106.025 51.4219C105.891 50.6568 106.403 49.9283 107.168 49.7946L112.25 48.9067C113.015 48.773 113.744 49.2849 113.877 50.05Z" fill="#00AEEF"/>
<path fill-rule="evenodd" clip-rule="evenodd" d="M93.5236 44.993C93.8991 44.3131 94.7546 44.0663 95.4345 44.4418L100.314 47.1362C100.993 47.5116 101.24 48.3671 100.865 49.047C100.489 49.7268 99.6338 49.9736 98.954 49.5982L94.0749 46.9038C93.395 46.5284 93.1482 45.6729 93.5236 44.993Z" fill="#00AEEF"/>
<path fill-rule="evenodd" clip-rule="evenodd" d="M91.5573 50.05C91.691 49.2849 92.4196 48.773 93.1846 48.9067L98.2668 49.7946C99.0319 49.9283 99.5437 50.6568 99.4101 51.4219C99.2764 52.187 98.5478 52.6988 97.7828 52.5652L92.7006 51.6772C91.9355 51.5436 91.4237 50.815 91.5573 50.05Z" fill="#00AEEF"/>
<path fill-rule="evenodd" clip-rule="evenodd" d="M99.114 52.9153C99.423 53.6279 99.096 54.456 98.3834 54.765L93.7828 56.7605C93.0702 57.0695 92.2421 56.7425 91.9331 56.0299C91.624 55.3174 91.9511 54.4893 92.6636 54.1802L97.2643 52.1848C97.9768 51.8757 98.805 52.2028 99.114 52.9153Z" fill="#00AEEF"/>
<path fill-rule="evenodd" clip-rule="evenodd" d="M106.32 52.9154C106.629 52.2028 107.458 51.8757 108.17 52.1848L112.771 54.1802C113.484 54.4893 113.811 55.3174 113.502 56.0299C113.193 56.7424 112.365 57.0695 111.652 56.7605L107.051 54.765C106.339 54.456 106.011 53.6279 106.32 52.9154Z" fill="#00AEEF"/>
<path fill-rule="evenodd" clip-rule="evenodd" d="M105.726 56.155C106.224 55.559 107.111 55.4796 107.707 55.9777L110.885 58.6338C111.481 59.1318 111.561 60.0187 111.063 60.6146C110.565 61.2106 109.678 61.2899 109.082 60.7919L105.904 58.1358C105.308 57.6378 105.228 56.7509 105.726 56.155Z" fill="#00AEEF"/>
<path fill-rule="evenodd" clip-rule="evenodd" d="M100.163 56.1549C100.661 56.7508 100.582 57.6376 99.9861 58.1357L96.808 60.7918C96.212 61.2899 95.3252 61.2105 94.8271 60.6146C94.3291 60.0187 94.4084 59.1318 95.0044 58.6338L98.1825 55.9776C98.7784 55.4796 99.6653 55.5589 100.163 56.1549Z" fill="#00AEEF"/>
<path d="M105.278 44.8579H100.157C99.1917 44.8579 98.4095 44.0758 98.4095 43.1108V43.0425C98.4095 40.6634 100.338 38.7346 102.717 38.7346C105.097 38.7346 107.025 40.6631 107.025 43.0425V43.1108C107.025 44.0755 106.243 44.8579 105.278 44.8579Z" fill="#00AEEF"/>
<path d="M110.309 51.5128V53.1657C110.309 56.244 108.471 58.8962 105.833 60.0878H105.829C102.339 58.5817 99.6026 60.0878 99.6026 60.0878C96.9644 58.8998 95.1265 56.2476 95.1265 53.1657V51.5128C95.1265 47.3197 98.5262 43.9233 102.716 43.9233C104.812 43.9233 106.71 44.7724 108.083 46.1457C109.46 47.5188 110.309 49.4161 110.309 51.5128Z" fill="#B0E6FA"/>
<path d="M105.832 60.0876C104.882 60.5173 103.827 60.755 102.716 60.755C101.604 60.755 100.553 60.5173 99.6022 60.0876L101.887 57.1381C102.307 56.5967 103.125 56.5964 103.544 57.1375L105.832 60.0876Z" fill="#00AEEF"/>
<path d="M44.8905 56.185V66.5153C44.8905 67.5249 44.0693 68.3434 43.0596 68.3434C43.0596 68.3434 43.0371 68.3434 42.9977 68.3434C42.7361 68.3434 41.6871 68.3096 40.953 67.7949C40.3821 67.3956 34.1608 66.2087 30.1812 65.4803V56.185C30.1812 55.8475 30.454 55.5746 30.7915 55.5746H44.2802C44.6177 55.5746 44.8905 55.8475 44.8905 56.185Z" fill="#00AEEF"/>
<path d="M41.2315 66.5153V60.1711C41.2315 59.8345 40.9584 59.5614 40.6217 59.5614H35.2679C35.0277 59.5614 34.81 59.4205 34.7115 59.2014L34.1364 57.9205C34.038 57.7015 33.8203 57.5605 33.5801 57.5605H28.9617C28.625 57.5605 28.3519 57.8336 28.3519 58.1703V66.5153C28.3519 67.5255 29.1709 68.3448 30.1815 68.3448H43.061C42.0505 68.3445 41.2315 67.5255 41.2315 66.5153Z" fill="#B0E6FA"/>
<path fill-rule="evenodd" clip-rule="evenodd" d="M32.6412 73.0791C32.6412 72.3025 33.2708 71.6729 34.0474 71.6729H39.1946C39.9712 71.6729 40.6008 72.3025 40.6008 73.0791C40.6008 73.8557 39.9712 74.4853 39.1946 74.4853H34.0474C33.2708 74.4853 32.6412 73.8557 32.6412 73.0791Z" fill="#00AEEF"/>
<path d="M70.1199 56.185V66.5153C70.1199 67.5249 69.2987 68.3434 68.289 68.3434C68.289 68.3434 68.2665 68.3434 68.2271 68.3434C67.9656 68.3434 66.9165 68.3096 66.1824 67.7949C65.6115 67.3956 59.3903 66.2087 55.4106 65.4803V56.185C55.4106 55.8475 55.6834 55.5746 56.0209 55.5746H69.5096C69.8471 55.5746 70.1199 55.8475 70.1199 56.185Z" fill="#00AEEF"/>
<path d="M66.4612 66.5153V60.1711C66.4612 59.8345 66.1881 59.5614 65.8515 59.5614H60.4976C60.2574 59.5614 60.0397 59.4205 59.9413 59.2014L59.3661 57.9205C59.2677 57.7015 59.05 57.5605 58.8098 57.5605H54.1914C53.8548 57.5605 53.5817 57.8336 53.5817 58.1703V66.5153C53.5817 67.5255 54.4007 68.3448 55.4112 68.3448H68.2907C67.2802 68.3445 66.4612 67.5255 66.4612 66.5153Z" fill="#B0E6FA"/>
<path fill-rule="evenodd" clip-rule="evenodd" d="M57.871 73.0791C57.871 72.3025 58.5006 71.6729 59.2772 71.6729H64.4244C65.201 71.6729 65.8306 72.3025 65.8306 73.0791C65.8306 73.8557 65.201 74.4853 64.4244 74.4853H59.2772C58.5006 74.4853 57.871 73.8557 57.871 73.0791Z" fill="#00AEEF"/>
<path d="M44.8911 80.8002V91.1305C44.8911 92.1402 44.0698 92.9586 43.0601 92.9586C43.0601 92.9586 43.0376 92.9586 42.9983 92.9586C42.7367 92.9586 41.6876 92.9249 40.9536 92.4102C40.3826 92.0108 34.1614 90.8239 30.1817 90.0955V80.8002C30.1817 80.4627 30.4545 80.1899 30.792 80.1899H44.2808C44.6182 80.1899 44.8911 80.4627 44.8911 80.8002Z" fill="#00AEEF"/>
<path d="M70.1199 80.8002V91.1305C70.1199 92.1402 69.2987 92.9586 68.289 92.9586C68.289 92.9586 68.2665 92.9586 68.2271 92.9586C67.9656 92.9586 66.9165 92.9249 66.1824 92.4102C65.6115 92.0108 59.3903 90.8239 55.4106 90.0955V80.8002C55.4106 80.4627 55.6834 80.1899 56.0209 80.1899H69.5096C69.8471 80.1899 70.1199 80.4627 70.1199 80.8002Z" fill="#00AEEF"/>
<path d="M41.2315 91.1303V84.7861C41.2315 84.4494 40.9584 84.1764 40.6217 84.1764H35.2679C35.0277 84.1764 34.81 84.0354 34.7115 83.8164L34.1364 82.5355C34.038 82.3164 33.8203 82.1755 33.5801 82.1755H28.9617C28.625 82.1755 28.3519 82.4486 28.3519 82.7853V91.1303C28.3519 92.1405 29.1709 92.9598 30.1815 92.9598H43.061C42.0505 92.9598 41.2315 92.1405 41.2315 91.1303Z" fill="#B0E6FA"/>
<path fill-rule="evenodd" clip-rule="evenodd" d="M32.6412 97.6941C32.6412 96.9174 33.2708 96.2878 34.0474 96.2878H39.1946C39.9712 96.2878 40.6008 96.9174 40.6008 97.6941C40.6008 98.4707 39.9712 99.1003 39.1946 99.1003H34.0474C33.2708 99.1003 32.6412 98.4707 32.6412 97.6941Z" fill="#00AEEF"/>
<path d="M66.4612 91.1303V84.7861C66.4612 84.4494 66.1881 84.1764 65.8515 84.1764H60.4976C60.2574 84.1764 60.0397 84.0354 59.9413 83.8164L59.3661 82.5355C59.2677 82.3164 59.05 82.1755 58.8098 82.1755H54.1914C53.8548 82.1755 53.5817 82.4486 53.5817 82.7853V91.1303C53.5817 92.1405 54.4007 92.9598 55.4112 92.9598H68.2907C67.2802 92.9598 66.4612 92.1405 66.4612 91.1303Z" fill="#B0E6FA"/>
<path fill-rule="evenodd" clip-rule="evenodd" d="M57.871 97.694C57.871 96.9174 58.5006 96.2878 59.2772 96.2878H64.4244C65.201 96.2878 65.8306 96.9174 65.8306 97.694C65.8306 98.4707 65.201 99.1003 64.4244 99.1003H59.2772C58.5006 99.1003 57.871 98.4707 57.871 97.694Z" fill="#00AEEF"/>
<path d="M95.3497 80.8002V91.1305C95.3497 92.1402 94.5285 92.9586 93.5188 92.9586C93.5188 92.9586 93.4963 92.9586 93.4569 92.9586C93.1954 92.9586 92.1463 92.9249 91.4122 92.4102C90.8413 92.0108 84.6201 90.8239 80.6404 90.0955V80.8002C80.6404 80.4627 80.9132 80.1899 81.2507 80.1899H94.7394C95.0769 80.1899 95.3497 80.4627 95.3497 80.8002Z" fill="#00AEEF"/>
<path d="M91.691 91.1303V84.7861C91.691 84.4494 91.4179 84.1764 91.0813 84.1764H85.7274C85.4872 84.1764 85.2695 84.0354 85.1711 83.8164L84.5959 82.5355C84.4975 82.3164 84.2798 82.1755 84.0396 82.1755H79.4212C79.0846 82.1755 78.8115 82.4486 78.8115 82.7853V91.1303C78.8115 92.1405 79.6305 92.9598 80.641 92.9598H93.5205C92.51 92.9598 91.691 92.1405 91.691 91.1303Z" fill="#B0E6FA"/>
<path fill-rule="evenodd" clip-rule="evenodd" d="M83.1008 97.6941C83.1008 96.9174 83.7304 96.2878 84.507 96.2878H89.6542C90.4308 96.2878 91.0604 96.9174 91.0604 97.6941C91.0604 98.4707 90.4308 99.1003 89.6542 99.1003H84.507C83.7304 99.1003 83.1008 98.4707 83.1008 97.6941Z" fill="#00AEEF"/>
<path d="M95.6854 30.8931C95.6854 21.3082 87.6942 13.5898 78.0111 14.0367C69.4467 14.4319 62.4622 21.3264 61.9649 29.8854C61.4609 38.558 67.5112 45.9113 75.6216 47.4633L77.6145 49.9439C78.2285 50.7083 79.3923 50.7083 80.0063 49.9439L81.9992 47.4633C89.7937 45.9718 95.6854 39.1222 95.6854 30.8931Z" fill="#B0E6FA"/>
<path fill-rule="evenodd" clip-rule="evenodd" d="M77.9462 12.6319C88.4342 12.1479 97.0916 20.5097 97.0916 30.8931C97.0916 39.6277 90.9661 46.9246 82.7788 48.7381L81.1026 50.8244C81.1026 50.8245 81.1025 50.8245 81.1025 50.8246C79.9256 52.2897 77.6951 52.2897 76.5182 50.8246C76.5181 50.8245 76.5181 50.8245 76.518 50.8244L74.8418 48.738C66.3162 46.8496 60.0258 39.0137 60.561 29.8038L61.9649 29.8854L60.561 29.8038C61.1001 20.5252 68.6634 13.0603 77.9462 12.6319ZM78.011 14.0369V14.0369V14.0369ZM94.2791 30.8931C94.2791 22.1066 86.9541 15.0317 78.0758 15.4415L78.0758 15.4415C70.23 15.8035 63.8242 22.1276 63.3688 29.967L63.3688 29.967C62.9067 37.9177 68.4511 44.6594 75.8858 46.082C76.2138 46.1448 76.5087 46.3222 76.7178 46.5825L78.7107 49.0631L78.7108 49.0633C78.7619 49.1268 78.8587 49.1268 78.9098 49.0633L78.9099 49.0631L80.9029 46.5825C81.112 46.3222 81.4069 46.1448 81.7348 46.082C88.8797 44.7149 94.2791 38.4343 94.2791 30.8931Z" fill="#00AEEF"/>
<path d="M89.0869 35.2908L80.0734 22.1283C79.4654 21.2404 78.1553 21.2404 77.5475 22.1283L68.534 35.2908C67.8385 36.3066 68.5658 37.6864 69.7971 37.6864H87.8241C89.0551 37.6864 89.7825 36.3066 89.0869 35.2908Z" fill="url(#paint5_linear_3004_2772)"/>
<path d="M78.8104 32.0592C78.0338 32.0592 77.4041 31.4295 77.4041 30.653V26.7644C77.4041 25.9879 78.0338 25.3582 78.8104 25.3582C79.5869 25.3582 80.2166 25.9879 80.2166 26.7644V30.653C80.2166 31.4295 79.5869 32.0592 78.8104 32.0592Z" fill="#00AEEF"/>
<path d="M78.8104 35.7608C79.587 35.7608 80.2166 35.1312 80.2166 34.3546C80.2166 33.5779 79.587 32.9483 78.8104 32.9483C78.0337 32.9483 77.4041 33.5779 77.4041 34.3546C77.4041 35.1312 78.0337 35.7608 78.8104 35.7608Z" fill="#00AEEF"/>
<path fill-rule="evenodd" clip-rule="evenodd" d="M44.7432 28.4645C43.9665 28.4645 43.3369 29.0941 43.3369 29.8707C43.3369 30.6474 43.9665 31.277 44.7432 31.277C45.5198 31.277 46.1494 30.6474 46.1494 29.8707C46.1494 29.0941 45.5198 28.4645 44.7432 28.4645ZM40.5244 29.8707C40.5244 27.5408 42.4132 25.652 44.7432 25.652C47.0731 25.652 48.9619 27.5408 48.9619 29.8707C48.9619 32.2007 47.0731 34.0895 44.7432 34.0895C42.4132 34.0895 40.5244 32.2007 40.5244 29.8707Z" fill="#B0E6FA"/>
<path fill-rule="evenodd" clip-rule="evenodd" d="M19.5713 131.388C18.7946 131.388 18.165 132.018 18.165 132.794C18.165 133.571 18.7946 134.201 19.5713 134.201C20.3479 134.201 20.9775 133.571 20.9775 132.794C20.9775 132.018 20.3479 131.388 19.5713 131.388ZM15.3525 132.794C15.3525 130.464 17.2413 128.576 19.5713 128.576C21.9012 128.576 23.79 130.464 23.79 132.794C23.79 135.124 21.9012 137.013 19.5713 137.013C17.2413 137.013 15.3525 135.124 15.3525 132.794Z" fill="#B0E6FA"/>
<path fill-rule="evenodd" clip-rule="evenodd" d="M53.2454 14.6645C54.022 14.6645 54.6516 15.2941 54.6516 16.0707C54.6516 16.9251 55.3442 17.6176 56.1985 17.6176C56.9751 17.6176 57.6047 18.2472 57.6047 19.0239C57.6047 19.8005 56.9751 20.4301 56.1985 20.4301C55.3442 20.4301 54.6516 21.1227 54.6516 21.977C54.6516 22.7536 54.022 23.3832 53.2454 23.3832C52.4687 23.3832 51.8391 22.7536 51.8391 21.977C51.8391 21.1227 51.1466 20.4301 50.2922 20.4301C49.5156 20.4301 48.886 19.8005 48.886 19.0239C48.886 18.2472 49.5156 17.6176 50.2922 17.6176C51.1466 17.6176 51.8391 16.9251 51.8391 16.0707C51.8391 15.2941 52.4687 14.6645 53.2454 14.6645Z" fill="#B0E6FA"/>
<path fill-rule="evenodd" clip-rule="evenodd" d="M102.717 128.576C103.494 128.576 104.124 129.205 104.124 129.982C104.124 130.836 104.816 131.529 105.671 131.529C106.447 131.529 107.077 132.158 107.077 132.935C107.077 133.712 106.447 134.341 105.671 134.341C104.816 134.341 104.124 135.034 104.124 135.888C104.124 136.665 103.494 137.294 102.717 137.294C101.941 137.294 101.311 136.665 101.311 135.888C101.311 135.034 100.619 134.341 99.7643 134.341C98.9876 134.341 98.358 133.712 98.358 132.935C98.358 132.158 98.9876 131.529 99.7643 131.529C100.619 131.529 101.311 130.836 101.311 129.982C101.311 129.205 101.941 128.576 102.717 128.576Z" fill="#B0E6FA"/>
<path fill-rule="evenodd" clip-rule="evenodd" d="M135.952 57.3228C136.729 57.3228 137.358 57.9524 137.358 58.729C137.358 59.5833 138.051 60.2759 138.905 60.2759C139.682 60.2759 140.311 60.9055 140.311 61.6821C140.311 62.4588 139.682 63.0884 138.905 63.0884C138.051 63.0884 137.358 63.7809 137.358 64.6352C137.358 65.4119 136.729 66.0415 135.952 66.0415C135.175 66.0415 134.546 65.4119 134.546 64.6352C134.546 63.7809 133.853 63.0884 132.999 63.0884C132.222 63.0884 131.593 62.4588 131.593 61.6821C131.593 60.9055 132.222 60.2759 132.999 60.2759C133.853 60.2759 134.546 59.5833 134.546 58.729C134.546 57.9524 135.175 57.3228 135.952 57.3228Z" fill="#B0E6FA"/>
<defs>
<linearGradient id="paint0_linear_3004_2772" x1="71.5" y1="250.408" x2="71.5" y2="-329.04" gradientUnits="userSpaceOnUse">
<stop stop-color="#082235"/>
<stop offset="1" stop-color="#00AEEF"/>
</linearGradient>
<linearGradient id="paint1_linear_3004_2772" x1="67.3916" y1="116.577" x2="67.3916" y2="85.4915" gradientUnits="userSpaceOnUse">
<stop stop-color="#082235"/>
<stop offset="1" stop-color="#00AEEF"/>
</linearGradient>
<linearGradient id="paint2_linear_3004_2772" x1="67.3915" y1="74.2668" x2="67.3915" y2="-81.9897" gradientUnits="userSpaceOnUse">
<stop stop-color="#082235"/>
<stop offset="1" stop-color="#00AEEF"/>
</linearGradient>
<linearGradient id="paint3_linear_3004_2772" x1="130.499" y1="78.4204" x2="130.499" y2="48.4631" gradientUnits="userSpaceOnUse">
<stop stop-color="#082235"/>
<stop offset="1" stop-color="#00AEEF"/>
</linearGradient>
<linearGradient id="paint4_linear_3004_2772" x1="102.717" y1="49.7094" x2="102.717" y2="-46.853" gradientUnits="userSpaceOnUse">
<stop stop-color="#082235"/>
<stop offset="1" stop-color="#00AEEF"/>
</linearGradient>
<linearGradient id="paint5_linear_3004_2772" x1="78.8105" y1="28.9525" x2="78.8105" y2="-15.6097" gradientUnits="userSpaceOnUse">
<stop stop-color="#082235"/>
<stop offset="1" stop-color="#00AEEF"/>
</linearGradient>
</defs>
</svg>
