<svg width="137" height="144" viewBox="0 0 137 144" fill="none" xmlns="http://www.w3.org/2000/svg">
<path d="M7.2284 37.8872C12.8461 21.6571 23.4177 -6.49905 45.9598 1.35484C54.7359 4.41258 57.4919 16.0259 66.3138 17.4735C74.6461 18.8407 81.6993 10.6518 89.6266 9.09904C99.4743 7.16995 109.895 9.7507 113.637 19.359C118.113 30.8548 104.919 43.7538 108.109 54.2514C113.371 71.5662 132.82 42.8689 136.298 70.8114C141.165 109.912 97.8231 179.52 68.6243 122.279C53.8185 93.2548 38.3014 113.61 15.2218 99.1717C-6.69373 85.4616 0.0891606 58.5123 7.2284 37.8872Z" fill="url(#paint0_linear_3004_2708)"/>
<path opacity="0.1" d="M126.55 109.328H120.687V47.2317C120.687 45.6784 119.428 44.4192 117.875 44.4192H50.511C50.5163 44.2319 50.5242 44.0454 50.5242 43.8567C50.5242 32.7437 41.3844 23.7654 30.2118 24.0283C19.6903 24.2761 11.1093 32.857 10.8618 43.3786C10.7195 49.428 13.2899 54.8775 17.438 58.6068V109.328H11.5745C10.0212 109.328 8.76204 110.587 8.76204 112.141V114.206C8.76204 117.312 11.2803 119.831 14.387 119.831H123.738C126.845 119.831 129.363 117.312 129.363 114.206V112.141C129.363 110.587 128.104 109.328 126.55 109.328Z" fill="#00AEEF"/>
<path d="M120.687 104.158V40.4813C120.687 38.928 119.428 37.6688 117.875 37.6688H20.2502C18.6969 37.6688 17.4377 38.928 17.4377 40.4813V104.158C17.4377 105.712 18.6969 106.971 20.2502 106.971H117.875C119.428 106.971 120.687 105.712 120.687 104.158Z" fill="#B0E6FA"/>
<path d="M120.685 40.4803V95.3436H17.4388V40.4803C17.4388 38.9278 18.696 37.6678 20.2513 37.6678H117.873C119.428 37.6678 120.685 38.9278 120.685 40.4803Z" fill="url(#paint1_linear_3004_2708)"/>
<path d="M94.439 95.3454L90.9082 90.5529C90.4858 89.9797 89.9047 89.5427 89.237 89.2963L72.5876 83.151V77.429H64.4567V83.151L47.8073 89.2963C47.1393 89.5429 46.5583 89.9797 46.1361 90.5529L42.6053 95.3454H94.439Z" fill="#00AEEF"/>
<path d="M64.4564 83.15C64.4564 83.15 64.936 86.3863 68.5219 86.3863C72.1078 86.3863 72.5873 83.15 72.5873 83.15V77.428H64.4564V83.15Z" fill="#B0E6FA"/>
<path d="M54.5362 56.9536C54.5362 56.9536 53.1494 66.2914 58.2513 69.51V56.9536H54.5362Z" fill="#00AEEF"/>
<path d="M82.5077 56.9536C82.5077 56.9536 83.8945 66.2914 78.7927 69.51V56.9536H82.5077Z" fill="#00AEEF"/>
<path d="M81.148 70.5199C83.6024 70.5199 85.592 68.5302 85.592 66.0759C85.592 63.6215 83.6024 61.6318 81.148 61.6318C78.6936 61.6318 76.704 63.6215 76.704 66.0759C76.704 68.5302 78.6936 70.5199 81.148 70.5199Z" fill="#B0E6FA"/>
<path d="M55.8955 70.5199C58.3499 70.5199 60.3395 68.5302 60.3395 66.0759C60.3395 63.6215 58.3499 61.6318 55.8955 61.6318C53.4412 61.6318 51.4515 63.6215 51.4515 66.0759C51.4515 68.5302 53.4412 70.5199 55.8955 70.5199Z" fill="#B0E6FA"/>
<path d="M68.5219 81.2364C62.1314 81.2364 56.951 76.0558 56.951 69.6655V56.9536H80.0931V69.6655C80.0928 76.0558 74.9122 81.2364 68.5219 81.2364Z" fill="#B0E6FA"/>
<path d="M54.5363 56.9534C54.5363 56.9534 51.251 46.3002 63.3517 43.792C74.7944 41.4202 76.3275 47.3661 80.702 46.1596C81.7944 45.8584 82.9506 46.3792 83.366 47.4334C84.8229 51.1332 86.489 58.6206 76.456 59.2368C71.2003 59.5597 68.8814 57.5353 68.8814 57.5353L69.5544 58.518C70.3565 59.6888 69.573 61.2902 68.1558 61.3662C64.1415 61.5816 57.3614 61.2413 54.5363 56.9534Z" fill="#00AEEF"/>
<path d="M123.738 113.081H14.387C11.2803 113.081 8.76204 110.562 8.76204 107.456V105.391C8.76204 103.837 10.0212 102.578 11.5745 102.578H126.551C128.104 102.578 129.363 103.837 129.363 105.391V107.456C129.363 110.562 126.845 113.081 123.738 113.081Z" fill="url(#paint2_linear_3004_2708)"/>
<path d="M74.5277 108.607H63.5975C61.7649 108.607 60.2793 107.121 60.2793 105.289V102.578H77.8459V105.289C77.8456 107.121 76.36 108.607 74.5277 108.607Z" fill="#B0E6FA"/>
<path d="M49.7334 90.2355H25.7271C24.9505 90.2355 24.3208 89.6058 24.3208 88.8293V87.2023C24.3208 86.4257 24.9505 85.796 25.7271 85.796H49.7334C50.5099 85.796 51.1396 86.4257 51.1396 87.2023V88.8293C51.1396 89.6061 50.5102 90.2355 49.7334 90.2355Z" fill="#B0E6FA"/>
<path d="M29.9463 72.7819H25.7273C24.9508 72.7819 24.321 72.1521 24.321 71.3756C24.321 70.5991 24.9508 69.9694 25.7273 69.9694H29.9463C30.7228 69.9694 31.3526 70.5991 31.3526 71.3756C31.3526 72.1521 30.7228 72.7819 29.9463 72.7819Z" fill="#B0E6FA"/>
<path d="M39.0279 77.6924H25.7271C24.9505 77.6924 24.3208 77.0627 24.3208 76.2861C24.3208 75.5096 24.9505 74.8799 25.7271 74.8799H39.0279C39.8044 74.8799 40.4342 75.5096 40.4342 76.2861C40.4342 77.0627 39.8047 77.6924 39.0279 77.6924Z" fill="#00AEEF"/>
<path d="M39.0279 82.6025H25.7271C24.9505 82.6025 24.3208 81.9728 24.3208 81.1963C24.3208 80.4198 24.9505 79.79 25.7271 79.79H39.0279C39.8044 79.79 40.4342 80.4198 40.4342 81.1963C40.4342 81.9728 39.8047 82.6025 39.0279 82.6025Z" fill="#00AEEF"/>
<path d="M50.5242 37.1067C50.5242 25.9937 41.3845 17.0154 30.2118 17.2783C19.6903 17.5261 11.1094 26.107 10.8619 36.6286C10.5989 47.8012 19.5772 56.9407 30.6902 56.9407H43.4567C44.544 56.9407 45.4255 56.0593 45.4255 54.9719V50.3806C48.594 46.8655 50.5242 42.2119 50.5242 37.1067Z" fill="#B0E6FA"/>
<path d="M126.55 101.172H122.093V40.4818C122.093 38.1556 120.201 36.2631 117.874 36.2631H57.6094C56.8329 36.2631 56.2032 36.8928 56.2032 37.6693C56.2032 38.4458 56.8329 39.0756 57.6094 39.0756H117.874C118.65 39.0756 119.281 39.7064 119.281 40.4818V101.172H18.844V59.7516C18.844 58.9751 18.2143 58.3454 17.4377 58.3454C16.6612 58.3454 16.0315 58.9751 16.0315 59.7516V101.172H11.5745C9.24832 101.172 7.35579 103.065 7.35579 105.391V107.456C7.35579 111.333 10.51 114.487 14.387 114.487H123.738C127.615 114.487 130.769 111.333 130.769 107.456V105.391C130.769 103.065 128.877 101.172 126.55 101.172ZM127.957 107.456C127.957 109.782 126.064 111.674 123.738 111.674H14.387C12.0608 111.674 10.1683 109.782 10.1683 107.456V105.391C10.1683 104.615 10.7991 103.985 11.5745 103.985H126.551C127.326 103.985 127.957 104.615 127.957 105.391V107.456H127.957Z" fill="#00AEEF"/>
<path d="M30.6899 58.347H43.4564C45.3174 58.347 46.8314 56.8331 46.8314 54.972V50.9105C50.1237 47.0644 51.9304 42.1842 51.9304 37.1068C51.9304 31.3386 49.6574 25.942 45.5303 21.9109C41.4044 17.8811 35.9529 15.731 30.1786 15.8727C24.7269 16.001 19.5811 18.215 15.6895 22.1066C11.7978 25.9983 9.5841 31.144 9.45557 36.5958C9.31973 42.3695 11.4643 47.8218 15.494 51.9475C19.5254 56.0743 24.922 58.347 30.6899 58.347ZM17.6785 24.0951C21.0565 20.717 25.5191 18.7955 30.245 18.6841C30.3949 18.6805 30.5442 18.6788 30.6936 18.6788C35.537 18.6788 40.0929 20.5311 43.5652 23.9227C47.1458 27.4203 49.1179 32.1022 49.1179 37.1065C49.1179 41.6703 47.4355 46.05 44.3806 49.439C44.1477 49.6972 44.0189 50.0327 44.0189 50.3806V54.972C44.0189 55.2823 43.7666 55.5345 43.4564 55.5345H30.6899C25.6856 55.5345 21.0037 53.5627 17.5063 49.9818C14.0101 46.4024 12.1497 41.672 12.2675 36.6616C12.3789 31.936 14.3004 27.4732 17.6785 24.0951Z" fill="#00AEEF"/>
<path d="M103.696 44.9937V47.9241C103.696 48.3487 104.148 48.6201 104.523 48.4205L107.272 46.9552C107.669 46.7434 107.669 46.1741 107.272 45.9623L104.523 44.497C104.148 44.2976 103.696 44.569 103.696 44.9937Z" fill="#00AEEF"/>
<path d="M112.118 48.5084C113.25 48.5084 114.168 47.5907 114.168 46.4587C114.168 45.3266 113.25 44.4089 112.118 44.4089C110.986 44.4089 110.069 45.3266 110.069 46.4587C110.069 47.5907 110.986 48.5084 112.118 48.5084Z" fill="#B0E6FA"/>
<path d="M109.987 54.0482H112.762C113.538 54.0482 114.168 53.4184 114.168 52.6419C114.168 51.8654 113.538 51.2357 112.762 51.2357H109.987C109.21 51.2357 108.58 51.8654 108.58 52.6419C108.58 53.4184 109.21 54.0482 109.987 54.0482Z" fill="#00AEEF"/>
<path d="M104.399 58.9586H112.762C113.538 58.9586 114.168 58.3288 114.168 57.5523C114.168 56.7758 113.538 56.1461 112.762 56.1461H104.399C103.622 56.1461 102.993 56.7758 102.993 57.5523C102.993 58.3288 103.622 58.9586 104.399 58.9586Z" fill="#00AEEF"/>
<path d="M30.6899 25.2314C24.4433 25.2314 19.3612 30.3136 19.3612 36.5601C19.3612 42.8067 24.4431 47.8888 30.6899 47.8888C31.4664 47.8888 32.0961 47.2591 32.0961 46.4826C32.0961 45.7061 31.4664 45.0763 30.6899 45.0763C25.9941 45.0763 22.1737 41.2561 22.1737 36.5601C22.1737 31.8641 25.9939 28.0439 30.6899 28.0439C35.3859 28.0439 39.2061 31.8641 39.2061 36.5601V40.4641C39.2061 41.3655 38.4726 42.099 37.5712 42.099C36.6698 42.099 35.9363 41.3655 35.9363 40.4641V36.5601C35.9363 33.6672 33.5828 31.3137 30.6899 31.3137C27.797 31.3137 25.4435 33.6672 25.4435 36.5601C25.4435 39.453 27.797 41.8065 30.6899 41.8065C31.593 41.8065 32.4432 41.577 33.186 41.1737C33.5274 43.2893 35.3609 44.9118 37.5712 44.9118C40.0234 44.9118 42.0186 42.9166 42.0186 40.4644V36.5604C42.0189 30.3136 36.9367 25.2314 30.6899 25.2314ZM30.6899 38.994C29.348 38.994 28.256 37.9022 28.256 36.5601C28.256 35.218 29.3478 34.1262 30.6899 34.1262C32.032 34.1262 33.1238 35.218 33.1238 36.5601C33.1241 37.9022 32.032 38.994 30.6899 38.994Z" fill="#00AEEF"/>
<path d="M104.657 90.2353H103.157C101.327 90.2353 99.8379 88.746 99.8379 86.9157V82.2871C99.8379 80.4568 101.327 78.9678 103.157 78.9678H104.657C106.487 78.9678 107.976 80.4568 107.976 82.2871V86.9157C107.976 88.746 106.487 90.2353 104.657 90.2353ZM103.158 81.7803C102.878 81.7803 102.651 82.0079 102.651 82.2871V86.9157C102.651 87.1952 102.878 87.4228 103.158 87.4228H104.657C104.937 87.4228 105.164 87.1952 105.164 86.9157V82.2871C105.164 82.0076 104.937 81.7803 104.657 81.7803H103.158Z" fill="#B0E6FA"/>
<path d="M112.762 90.2352C111.985 90.2352 111.356 89.6055 111.356 88.8289V81.7803H111.231C110.454 81.7803 109.824 81.1506 109.824 80.374C109.824 79.5975 110.454 78.9678 111.231 78.9678H112.762C113.538 78.9678 114.168 79.5975 114.168 80.374V88.8289C114.168 89.6058 113.538 90.2352 112.762 90.2352Z" fill="#B0E6FA"/>
<path d="M129.363 53.0705C128.586 53.0705 127.957 52.4408 127.957 51.6643C127.957 50.8113 127.263 50.1174 126.41 50.1174C125.633 50.1174 125.004 49.4877 125.004 48.7112C125.004 47.9346 125.633 47.3049 126.41 47.3049C127.263 47.3049 127.957 46.6111 127.957 45.7581C127.957 44.9815 128.586 44.3518 129.363 44.3518C130.139 44.3518 130.769 44.9815 130.769 45.7581C130.769 46.6111 131.463 47.3049 132.316 47.3049C133.093 47.3049 133.722 47.9346 133.722 48.7112C133.722 49.4877 133.093 50.1174 132.316 50.1174C131.463 50.1174 130.769 50.8113 130.769 51.6643C130.769 52.4408 130.14 53.0705 129.363 53.0705Z" fill="#B0E6FA"/>
<path d="M87.4191 127.026C86.6425 127.026 86.0128 126.396 86.0128 125.62C86.0128 124.767 85.319 124.073 84.4659 124.073C83.6894 124.073 83.0597 123.443 83.0597 122.666C83.0597 121.89 83.6894 121.26 84.4659 121.26C85.319 121.26 86.0128 120.566 86.0128 119.713C86.0128 118.937 86.6425 118.307 87.4191 118.307C88.1956 118.307 88.8253 118.937 88.8253 119.713C88.8253 120.566 89.5191 121.26 90.3722 121.26C91.1487 121.26 91.7784 121.89 91.7784 122.666C91.7784 123.443 91.1487 124.073 90.3722 124.073C89.5191 124.073 88.8253 124.767 88.8253 125.62C88.8253 126.396 88.1956 127.026 87.4191 127.026Z" fill="#B0E6FA"/>
<path d="M9.72109 20.2128C8.94456 20.2128 8.31484 19.5831 8.31484 18.8066C8.31484 17.9535 7.621 17.2597 6.76797 17.2597C5.99144 17.2597 5.36172 16.63 5.36172 15.8534C5.36172 15.0769 5.99144 14.4472 6.76797 14.4472C7.621 14.4472 8.31484 13.7534 8.31484 12.9003C8.31484 12.1238 8.94456 11.4941 9.72109 11.4941C10.4976 11.4941 11.1273 12.1238 11.1273 12.9003C11.1273 13.7534 11.8212 14.4472 12.6742 14.4472C13.4507 14.4472 14.0805 15.0769 14.0805 15.8534C14.0805 16.63 13.4507 17.2597 12.6742 17.2597C11.8212 17.2597 11.1273 17.9535 11.1273 18.8066C11.1273 19.5831 10.4979 20.2128 9.72109 20.2128Z" fill="#B0E6FA"/>
<path d="M27.8366 128.432C27.0601 128.432 26.4304 127.802 26.4304 127.026C26.4304 126.173 25.7366 125.479 24.8835 125.479C24.107 125.479 23.4773 124.849 23.4773 124.073C23.4773 123.296 24.107 122.666 24.8835 122.666C25.7366 122.666 26.4304 121.973 26.4304 121.12C26.4304 120.343 27.0601 119.713 27.8366 119.713C28.6132 119.713 29.2429 120.343 29.2429 121.12C29.2429 121.973 29.9367 122.666 30.7898 122.666C31.5663 122.666 32.196 123.296 32.196 124.073C32.196 124.849 31.5663 125.479 30.7898 125.479C29.9367 125.479 29.2429 126.173 29.2429 127.026C29.2429 127.803 28.6135 128.432 27.8366 128.432Z" fill="#B0E6FA"/>
<path d="M45.4966 131.398C45.1366 131.398 44.7769 131.261 44.5021 130.986L42.9653 129.45L41.4286 130.986C40.8793 131.535 39.9892 131.535 39.4399 130.986C38.8906 130.437 38.8906 129.547 39.4399 128.998L41.9711 126.466C42.5204 125.917 43.4106 125.917 43.9598 126.466L46.4911 128.998C47.0404 129.547 47.0404 130.437 46.4911 130.986C46.2166 131.261 45.8566 131.398 45.4966 131.398Z" fill="#B0E6FA"/>
<defs>
<linearGradient id="paint0_linear_3004_2708" x1="68.5" y1="250.408" x2="68.5" y2="-329.04" gradientUnits="userSpaceOnUse">
<stop stop-color="#082235"/>
<stop offset="1" stop-color="#00AEEF"/>
</linearGradient>
<linearGradient id="paint1_linear_3004_2708" x1="69.0622" y1="64.2948" x2="69.0622" y2="-94.1215" gradientUnits="userSpaceOnUse">
<stop stop-color="#082235"/>
<stop offset="1" stop-color="#00AEEF"/>
</linearGradient>
<linearGradient id="paint2_linear_3004_2708" x1="69.0626" y1="107.427" x2="69.0626" y2="78.5802" gradientUnits="userSpaceOnUse">
<stop stop-color="#082235"/>
<stop offset="1" stop-color="#00AEEF"/>
</linearGradient>
</defs>
</svg>
