<svg width="16" height="16" viewBox="0 0 16 16" fill="none" xmlns="http://www.w3.org/2000/svg">
<path d="M8.16 8.8L7.44 9.52C7.29333 9.66666 7.22 9.85333 7.22 10.08C7.22 10.3067 7.29333 10.4933 7.44 10.64C7.58666 10.7867 7.77333 10.86 8 10.86C8.22666 10.86 8.41333 10.7867 8.55999 10.64L10.64 8.56C10.8 8.4 10.88 8.21333 10.88 8C10.88 7.78666 10.8 7.6 10.64 7.44L8.55999 5.36C8.41333 5.21333 8.22666 5.14 8 5.14C7.77333 5.14 7.58666 5.21333 7.44 5.36C7.29333 5.50666 7.22 5.69333 7.22 5.92C7.22 6.14666 7.29333 6.33333 7.44 6.48L8.16 7.2H5.6C5.37333 7.2 5.18346 7.2768 5.0304 7.4304C4.87733 7.584 4.80053 7.77386 4.8 8C4.79946 8.22613 4.87626 8.41626 5.0304 8.5704C5.18453 8.72453 5.3744 8.80106 5.6 8.8H8.16ZM8 16C6.89333 16 5.85333 15.7899 4.88 15.3696C3.90667 14.9493 3.06 14.3795 2.34 13.66C1.62 12.9405 1.05013 12.0939 0.630401 11.12C0.210668 10.1461 0.000534346 9.10613 1.01266e-06 8C-0.00053232 6.89386 0.209601 5.85387 0.630401 4.88C1.0512 3.90613 1.62107 3.05947 2.34 2.34C3.05893 1.62053 3.9056 1.05067 4.88 0.6304C5.8544 0.210133 6.8944 0 8 0C9.10559 0 10.1456 0.210133 11.12 0.6304C12.0944 1.05067 12.9411 1.62053 13.66 2.34C14.3789 3.05947 14.9491 3.90613 15.3704 4.88C15.7917 5.85387 16.0016 6.89386 16 8C15.9984 9.10613 15.7883 10.1461 15.3696 11.12C14.9509 12.0939 14.3811 12.9405 13.66 13.66C12.9389 14.3795 12.0923 14.9496 11.12 15.3704C10.1477 15.7912 9.10773 16.0011 8 16ZM8 14.4C9.78666 14.4 11.3 13.78 12.54 12.54C13.78 11.3 14.4 9.78666 14.4 8C14.4 6.21333 13.78 4.7 12.54 3.46C11.3 2.22 9.78666 1.6 8 1.6C6.21333 1.6 4.7 2.22 3.46 3.46C2.22 4.7 1.6 6.21333 1.6 8C1.6 9.78666 2.22 11.3 3.46 12.54C4.7 13.78 6.21333 14.4 8 14.4Z" fill="white"/>
</svg>
