<svg width="40" height="40" viewBox="0 0 40 40" fill="none" xmlns="http://www.w3.org/2000/svg">
<path d="M22.3995 16.6938L21.1245 16.5063L20.5557 15.3563C20.3432 14.9313 19.6432 14.9313 19.437 15.3563L18.8682 16.5063L17.5932 16.6938C17.3557 16.725 17.162 16.8938 17.087 17.1188C17.012 17.3438 17.0745 17.5938 17.2432 17.7625L18.162 18.6625L17.9432 19.9313C17.9057 20.1688 17.9995 20.4 18.1932 20.5438C18.387 20.6813 18.6432 20.7 18.8495 20.5938L19.987 19.9938L21.1245 20.5938C21.2182 20.6438 21.3182 20.6625 21.4182 20.6625C21.5495 20.6625 21.6745 20.625 21.787 20.5438C21.9807 20.4063 22.0745 20.1688 22.037 19.9313L21.8182 18.6625L22.737 17.7625C22.9057 17.5938 22.9682 17.35 22.8932 17.1188C22.8182 16.8938 22.6245 16.725 22.387 16.6938H22.3995ZM20.7182 17.9938C20.5682 18.1375 20.5057 18.3438 20.537 18.55L20.5932 18.8938L20.287 18.7313C20.1932 18.6813 20.0932 18.6625 19.9932 18.6625C19.8932 18.6625 19.7932 18.6875 19.6995 18.7313L19.3932 18.8938L19.4495 18.55C19.487 18.35 19.4182 18.1375 19.2682 17.9938L19.0182 17.75L19.362 17.7C19.5682 17.6688 19.7432 17.5438 19.8307 17.3563L19.987 17.0438L20.1432 17.3563C20.237 17.5438 20.412 17.6688 20.612 17.7L20.9557 17.75L20.7057 17.9938H20.7182ZM38.3932 30.9L31.037 23.5438C31.1182 23.4938 31.2057 23.4438 31.2932 23.4C31.8745 23.0688 32.537 22.6938 32.862 22.025C33.1807 21.3688 33.062 20.625 32.962 19.9625C32.8932 19.5125 32.8245 19.0875 32.8995 18.7688C32.9682 18.4688 33.2057 18.1313 33.4557 17.7688C33.8432 17.2125 34.2807 16.5813 34.2807 15.825C34.2807 15.0688 33.8432 14.4375 33.4557 13.8813C33.2057 13.5188 32.9682 13.175 32.8995 12.8813C32.8245 12.5625 32.8995 12.1375 32.962 11.6875C33.0682 11.0313 33.1807 10.2875 32.862 9.63129C32.537 8.96254 31.8745 8.58754 31.2932 8.25629C30.9057 8.03754 30.537 7.82504 30.337 7.58129C30.137 7.33129 30.0182 6.92504 29.887 6.49379C29.6932 5.85629 29.4745 5.12504 28.8995 4.66879C28.3245 4.21254 27.5745 4.15629 26.9057 4.11254C26.4557 4.08129 26.0307 4.05004 25.737 3.91254C25.4557 3.77504 25.1745 3.46879 24.8745 3.13754C24.4182 2.63754 23.9057 2.07504 23.1745 1.90629C22.4682 1.74379 21.7745 2.02504 21.162 2.26879C20.737 2.43754 20.3307 2.60004 19.9995 2.60004C19.6682 2.60004 19.262 2.43754 18.837 2.26879C18.2245 2.02504 17.5307 1.74379 16.8245 1.90629C16.0932 2.07504 15.5807 2.63754 15.1245 3.13754C14.8245 3.46879 14.5432 3.77504 14.262 3.91254C13.9745 4.05004 13.5432 4.08129 13.0932 4.11254C12.4307 4.15629 11.6745 4.21254 11.0995 4.66879C10.5245 5.13129 10.3057 5.85629 10.112 6.49379C9.98072 6.92504 9.86197 7.33129 9.66197 7.58129C9.46822 7.82504 9.09947 8.03754 8.70572 8.25629C8.12447 8.58754 7.46197 8.96254 7.13697 9.63129C6.81822 10.2875 6.93697 11.0313 7.03697 11.6938C7.10572 12.1438 7.17447 12.5688 7.09947 12.8875C7.03072 13.1875 6.79322 13.525 6.54322 13.8875C6.15572 14.4438 5.71822 15.075 5.71822 15.8313C5.71822 16.5875 6.15572 17.2188 6.54322 17.775C6.79322 18.1375 7.03072 18.4813 7.09947 18.775C7.17447 19.0938 7.09947 19.5188 7.03697 19.9688C6.93072 20.625 6.81822 21.3688 7.13697 22.025C7.46197 22.6938 8.12447 23.0688 8.70572 23.4C8.79322 23.45 8.88072 23.5 8.96197 23.55L1.60572 30.8938C1.44322 31.0563 1.38072 31.3063 1.44947 31.525C1.51822 31.7438 1.71197 31.9125 1.94322 31.95L6.80572 32.7625L7.61822 37.625C7.65572 37.8563 7.81822 38.0438 8.04322 38.1188C8.10572 38.1375 8.16822 38.15 8.23697 38.15C8.39947 38.15 8.56197 38.0875 8.68072 37.9688L16.8995 29.75C17.5807 29.875 18.2495 29.6125 18.8432 29.375C19.2682 29.2063 19.6745 29.0438 20.0057 29.0438C20.337 29.0438 20.7432 29.2063 21.1682 29.375C21.6557 29.5688 22.1932 29.7875 22.7495 29.7875C22.8807 29.7875 23.0057 29.7688 23.137 29.7438C23.1557 29.7688 23.1682 29.8 23.187 29.825L31.3307 37.9688C31.4495 38.0875 31.612 38.15 31.7745 38.15C31.837 38.15 31.9057 38.1375 31.9682 38.1188C32.1932 38.05 32.3557 37.8563 32.3932 37.625L33.2057 32.7625L38.0682 31.95C38.2995 31.9125 38.487 31.75 38.562 31.525C38.6307 31.3 38.5745 31.0563 38.4057 30.8938L38.3932 30.9ZM8.64947 36.225L7.96822 32.1188C7.92447 31.8563 7.71822 31.65 7.45572 31.6063L3.34947 30.925L9.85572 24.4188C9.94947 24.6375 10.0307 24.8938 10.112 25.1625C10.3057 25.8 10.5245 26.5313 11.0995 26.9875C11.6745 27.4438 12.4307 27.5 13.0932 27.5438C13.5432 27.575 13.9682 27.6063 14.262 27.7438C14.5432 27.8813 14.8245 28.1875 15.1245 28.5188C15.312 28.725 15.5182 28.9438 15.737 29.1438L8.64947 36.2313V36.225ZM21.6245 28.2188C21.1057 28.0125 20.5745 27.8 19.9995 27.8C19.4245 27.8 18.8932 28.0125 18.3745 28.2188C17.887 28.4125 17.4307 28.6 17.0995 28.525C16.7495 28.4438 16.4057 28.0688 16.0432 27.675C15.6745 27.275 15.2995 26.8563 14.7995 26.6188C14.2932 26.375 13.7245 26.3375 13.1745 26.3C12.6432 26.2625 12.1432 26.2313 11.8745 26.0125C11.5995 25.7938 11.4557 25.3125 11.3057 24.8C11.1495 24.275 10.9807 23.7313 10.6307 23.2938C10.2807 22.8563 9.79322 22.5813 9.31822 22.3125C8.84947 22.05 8.41197 21.8 8.26197 21.4813C8.11197 21.175 8.19322 20.6813 8.27447 20.1563C8.36197 19.6125 8.44947 19.0438 8.32447 18.4938C8.20572 17.9625 7.88697 17.5 7.57447 17.0563C7.26822 16.6125 6.97447 16.1938 6.97447 15.825C6.97447 15.4563 7.26822 15.0375 7.57447 14.5938C7.88072 14.15 8.19947 13.6875 8.32447 13.1563C8.44947 12.6063 8.36197 12.0375 8.27447 11.4938C8.19322 10.9688 8.11197 10.475 8.26197 10.1688C8.41822 9.85004 8.85572 9.60004 9.31822 9.33754C9.79322 9.06879 10.287 8.78754 10.6307 8.35629C10.9807 7.91879 11.1432 7.37504 11.3057 6.85004C11.462 6.33754 11.6057 5.85629 11.8745 5.63754C12.1432 5.42504 12.6432 5.38754 13.1745 5.35004C13.7245 5.31254 14.2932 5.27504 14.7995 5.02504C15.2995 4.78754 15.6745 4.36879 16.0432 3.96879C16.4057 3.56879 16.7495 3.19379 17.0995 3.11879C17.4245 3.04379 17.887 3.23129 18.3745 3.42504C18.8932 3.63129 19.4245 3.84379 19.9995 3.84379C20.5745 3.84379 21.112 3.63129 21.6245 3.42504C22.112 3.23129 22.5745 3.05004 22.8995 3.11879C23.2495 3.20004 23.5932 3.57504 23.9557 3.96879C24.3245 4.36879 24.6995 4.78754 25.1995 5.02504C25.7057 5.26879 26.2745 5.30629 26.8245 5.35004C27.3557 5.38754 27.8557 5.41879 28.1245 5.63754C28.3995 5.85629 28.5432 6.33754 28.6932 6.85004C28.8495 7.37504 29.0182 7.91879 29.3682 8.35629C29.7182 8.79379 30.2057 9.06879 30.6807 9.33754C31.1495 9.60004 31.587 9.85004 31.737 10.1688C31.887 10.475 31.8057 10.9688 31.7245 11.4875C31.637 12.0313 31.5495 12.6 31.6745 13.15C31.7932 13.6813 32.112 14.1438 32.4245 14.5875C32.7307 15.0313 33.0245 15.45 33.0245 15.8188C33.0245 16.1875 32.7307 16.6063 32.4245 17.05C32.1182 17.4938 31.7995 17.9563 31.6745 18.4875C31.5495 19.0375 31.637 19.6063 31.7245 20.15C31.8057 20.675 31.887 21.1688 31.737 21.475C31.5807 21.7938 31.1432 22.0438 30.6807 22.3063C30.2057 22.575 29.712 22.8563 29.3682 23.2875C29.0182 23.725 28.8557 24.2688 28.6932 24.7938C28.537 25.3063 28.3932 25.7875 28.1245 26.0063C27.8557 26.2188 27.3557 26.2563 26.8245 26.2938C26.2745 26.3313 25.7057 26.3688 25.1995 26.6125C24.6995 26.85 24.3245 27.2688 23.9557 27.6688C23.5932 28.0688 23.2495 28.4438 22.8995 28.5188C22.5745 28.5938 22.112 28.4063 21.6245 28.2125V28.2188ZM32.5432 31.6063C32.2807 31.65 32.0745 31.8563 32.0307 32.1188L31.3495 36.225L24.262 29.1375C24.487 28.9375 24.687 28.725 24.8745 28.5125C25.1745 28.1813 25.4557 27.875 25.737 27.7375C26.0245 27.6 26.4557 27.5688 26.9057 27.5375C27.5682 27.4938 28.3245 27.4375 28.8995 26.9813C29.4745 26.5188 29.6932 25.7938 29.887 25.1563C29.9682 24.8875 30.0495 24.6313 30.1432 24.4125L36.6495 30.9188L32.5432 31.6V31.6063ZM24.7745 10.0438L23.037 10.6938C22.387 10.9375 21.6307 10.7125 21.2745 10.1813L20.512 9.03129C20.3995 8.85629 20.2057 8.75629 19.9995 8.75004C19.8182 8.76254 19.5995 8.85004 19.4807 9.01879L18.6745 10.1875C18.312 10.7125 17.5557 10.925 16.9182 10.6813L15.2182 10.0313C14.987 9.94379 14.7307 10 14.5557 10.1688C14.3807 10.3375 14.3245 10.6 14.4057 10.825L15.6682 14.2938C14.887 15.2563 14.412 16.4813 14.412 17.8125C14.412 20.8875 16.912 23.3938 19.9932 23.3938C23.0745 23.3938 25.5745 20.8875 25.5745 17.8125C25.5745 16.4813 25.1057 15.2563 24.3182 14.2938L25.5807 10.825C25.662 10.5938 25.6057 10.3375 25.4307 10.1688C25.2557 10 24.9995 9.94379 24.7745 10.025V10.0438ZM16.4682 11.8625C17.6495 12.3125 19.012 11.9125 19.6995 10.9063L19.9807 10.4938L20.2307 10.8688C20.912 11.8938 22.2745 12.3125 23.4682 11.8625L23.937 11.6875L23.3245 13.3688C22.3932 12.6688 21.237 12.25 19.987 12.25C18.737 12.25 17.5807 12.6688 16.6495 13.3688L16.0432 11.6938L16.462 11.8563L16.4682 11.8625ZM19.9932 22.1625C17.6057 22.1625 15.662 20.2188 15.662 17.8313C15.662 15.4438 17.6057 13.5 19.9932 13.5C22.3807 13.5 24.3245 15.4438 24.3245 17.8313C24.3245 20.2188 22.3807 22.1625 19.9932 22.1625ZM30.6182 15.825C30.6182 9.96879 25.8495 5.20004 19.9932 5.20004C14.137 5.20004 9.37447 9.96254 9.37447 15.8188C9.37447 21.675 14.1432 26.4438 19.9995 26.4438C25.8557 26.4438 30.6245 21.675 30.6245 15.8188L30.6182 15.825ZM19.9932 25.2C14.8245 25.2 10.6182 20.9938 10.6182 15.825C10.6182 10.6563 14.8245 6.45004 19.9932 6.45004C25.162 6.45004 29.3682 10.6563 29.3682 15.825C29.3682 20.9938 25.162 25.2 19.9932 25.2Z" fill="white"/>
</svg>
