<svg width="41" height="41" viewBox="0 0 41 41" fill="none" xmlns="http://www.w3.org/2000/svg">
<g clip-path="url(#clip0_3409_4194)">
<path d="M7.0625 15.5218H14.3352C14.8263 13.7221 15.7783 12.022 17.1918 10.6084C17.8023 9.99793 18.4662 9.47348 19.1687 9.03504V5.24316H1.08594V14.6146C1.08594 15.1157 1.49211 15.5218 1.99312 15.5218H4.32812" stroke="white" stroke-width="2" stroke-miterlimit="10" stroke-linecap="round" stroke-linejoin="round"/>
<path d="M11.8663 11.9052H4.57812" stroke="white" stroke-width="2" stroke-miterlimit="10" stroke-linecap="round" stroke-linejoin="round"/>
<path d="M15.6762 11.9052H14.1328" stroke="white" stroke-width="2" stroke-miterlimit="10" stroke-linecap="round" stroke-linejoin="round"/>
<path d="M4.57812 8.4552H15.6777" stroke="white" stroke-width="2" stroke-miterlimit="10" stroke-linecap="round" stroke-linejoin="round"/>
<path d="M19.1687 5.24318H1.08594V2.58138C1.08594 2.08037 1.49211 1.67419 1.99312 1.67419H18.2614C18.7624 1.67419 19.1686 2.08037 19.1686 2.58138V5.24318H19.1687Z" stroke="white" stroke-width="2" stroke-miterlimit="10" stroke-linecap="round" stroke-linejoin="round"/>
<path d="M21.832 29.074V32.6094" stroke="white" stroke-width="2" stroke-miterlimit="10" stroke-linecap="round" stroke-linejoin="round"/>
<path d="M21.832 35.3438V38.4188C21.832 38.9198 22.2382 39.326 22.7392 39.326H39.0075C39.5085 39.326 39.9147 38.9198 39.9147 38.4188V28.9565" stroke="white" stroke-width="2" stroke-miterlimit="10" stroke-linecap="round" stroke-linejoin="round"/>
<path d="M29.1348 35.7094H36.423" stroke="white" stroke-width="2" stroke-miterlimit="10" stroke-linecap="round" stroke-linejoin="round"/>
<path d="M25.3242 35.7094H26.8677" stroke="white" stroke-width="2" stroke-miterlimit="10" stroke-linecap="round" stroke-linejoin="round"/>
<path d="M25.3242 32.2594H36.4238" stroke="white" stroke-width="2" stroke-miterlimit="10" stroke-linecap="round" stroke-linejoin="round"/>
<path d="M39.0069 25.4784H33.6202C33.3891 25.76 33.1424 26.0332 32.8795 26.2961C31.5606 27.615 29.9921 28.5315 28.3262 29.0474H39.9141V26.3857C39.9141 25.8846 39.5079 25.4784 39.0069 25.4784Z" stroke="white" stroke-width="2" stroke-miterlimit="10" stroke-linecap="round" stroke-linejoin="round"/>
<path d="M14.9551 30.8535L18.4378 27.3707C18.003 27.0482 17.5863 26.6903 17.1921 26.2961C16.7979 25.9019 16.44 25.4851 16.1175 25.0504L12.6348 28.5332L14.9551 30.8535Z" stroke="white" stroke-width="2" stroke-miterlimit="10" stroke-linecap="round" stroke-linejoin="round"/>
<path d="M11.3054 28.3087L4.96449 34.6496C3.89465 35.7195 3.89465 37.4539 4.96449 38.5237C6.03434 39.5935 7.76879 39.5935 8.83856 38.5237L15.1795 32.1828C15.4846 31.8777 15.4846 31.383 15.1795 31.0779L12.4103 28.3087C12.1051 28.0035 11.6105 28.0035 11.3054 28.3087Z" stroke="white" stroke-width="2" stroke-miterlimit="10" stroke-linecap="round" stroke-linejoin="round"/>
<path d="M31.8903 15.3343L28.5883 18.6362C28.3025 18.922 27.814 18.7196 27.814 18.3155V15.3343H24.8029C24.0514 15.3343 23.4421 14.7251 23.4421 13.9736V7.47388C21.1554 7.80411 18.9518 8.84896 17.1924 10.6084C12.8604 14.9404 12.8604 21.964 17.1924 26.2961C21.5244 30.6281 28.548 30.6281 32.88 26.2961C35.8477 23.3284 36.782 19.0976 35.6836 15.3343H31.8903V15.3343Z" stroke="white" stroke-width="2" stroke-miterlimit="10" stroke-linecap="round" stroke-linejoin="round"/>
<path d="M17.0156 19.7188C17.273 21.3572 18.0323 22.9319 19.2947 24.1944C22.466 27.3657 27.6077 27.3657 30.779 24.1944C33.1744 21.7991 33.7599 18.2798 32.5368 15.3343H31.891L28.5891 18.6362C28.3033 18.9219 27.8148 18.7195 27.8148 18.3155V15.3343H24.8037C24.0521 15.3343 23.4429 14.7251 23.4429 13.9735V10.4891C21.923 10.7919 20.4729 11.5319 19.2948 12.7101C18.0841 13.9208 17.3362 15.4187 17.0498 16.9844" stroke="white" stroke-width="2" stroke-miterlimit="10" stroke-linecap="round" stroke-linejoin="round"/>
<path d="M35.7407 1.67419H24.8022C24.0506 1.67419 23.4414 2.28341 23.4414 3.03498V13.9736C23.4414 14.7251 24.0507 15.3344 24.8022 15.3344H27.8133V18.3155C27.8133 18.7197 28.3019 18.922 28.5876 18.6362L31.8895 15.3344H35.7408C36.4923 15.3344 37.1016 14.7251 37.1016 13.9736V3.03498C37.1015 2.28349 36.4923 1.67419 35.7407 1.67419Z" stroke="white" stroke-width="2" stroke-miterlimit="10" stroke-linecap="round" stroke-linejoin="round"/>
<path d="M28.0781 6.77734C28.0781 5.51945 29.1369 4.50883 30.4118 4.58797C31.5042 4.65578 32.3934 5.54492 32.4612 6.63734C32.5213 7.60656 31.9518 8.45078 31.1226 8.8C30.6057 9.01766 30.2719 9.52649 30.2719 10.0873V10.0913" stroke="white" stroke-width="2" stroke-miterlimit="10" stroke-linecap="round" stroke-linejoin="round"/>
<path d="M30.2715 12.0515V12.425" stroke="white" stroke-width="2" stroke-miterlimit="10" stroke-linecap="round" stroke-linejoin="round"/>
</g>
<defs>
<clipPath id="clip0_3409_4194">
<rect width="40" height="40" fill="white" transform="translate(0.5 0.500122)"/>
</clipPath>
</defs>
</svg>
