<svg width="41" height="41" viewBox="0 0 41 41" fill="none" xmlns="http://www.w3.org/2000/svg">
<g clip-path="url(#clip0_3409_4468)">
<mask id="mask0_3409_4468" style="mask-type:luminance" maskUnits="userSpaceOnUse" x="0" y="0" width="41" height="41">
<path d="M0.613281 0.984623H40.6133V40.9846H0.613281V0.984623Z" fill="white"/>
</mask>
<g mask="url(#mask0_3409_4468)">
<path d="M27.6445 30.3596H13.582C12.2877 30.3596 11.2383 29.3103 11.2383 28.0159V13.9534C11.2383 12.6589 12.2877 11.6096 13.582 11.6096H27.6445C28.9389 11.6096 29.9883 12.6589 29.9883 13.9534V28.0159C29.9883 29.3103 28.9389 30.3596 27.6445 30.3596Z" stroke="white" stroke-width="2" stroke-miterlimit="10" stroke-linecap="round" stroke-linejoin="round"/>
<path d="M8.89453 4.50024C8.89453 5.7947 7.84516 6.84399 6.55078 6.84399C5.25641 6.84399 4.20703 5.7947 4.20703 4.50024C4.20703 3.20579 5.25641 2.15649 6.55078 2.15649C7.84516 2.15649 8.89453 3.20579 8.89453 4.50024Z" stroke="white" stroke-width="2" stroke-miterlimit="10" stroke-linecap="round" stroke-linejoin="round"/>
<path d="M37.0195 4.50024C37.0195 5.7947 35.9702 6.84399 34.6758 6.84399C33.3814 6.84399 32.332 5.7947 32.332 4.50024C32.332 3.20579 33.3814 2.15649 34.6758 2.15649C35.9702 2.15649 37.0195 3.20579 37.0195 4.50024Z" stroke="white" stroke-width="2" stroke-miterlimit="10" stroke-linecap="round" stroke-linejoin="round"/>
<path d="M20.6133 6.84399V11.6096" stroke="white" stroke-width="2" stroke-miterlimit="10" stroke-linecap="round" stroke-linejoin="round"/>
<path d="M32.332 4.50024H29.9883C28.6939 4.50024 27.6445 5.54954 27.6445 6.84399V11.6096" stroke="white" stroke-width="2" stroke-miterlimit="10" stroke-linecap="round" stroke-linejoin="round"/>
<path d="M8.89453 4.50024H11.2383C12.5327 4.50024 13.582 5.54954 13.582 6.84399V11.6096" stroke="white" stroke-width="2" stroke-miterlimit="10" stroke-linecap="round" stroke-linejoin="round"/>
<path d="M8.89453 37.469C8.89453 36.1745 7.84516 35.1252 6.55078 35.1252C5.25641 35.1252 4.20703 36.1745 4.20703 37.469C4.20703 38.7634 5.25641 39.8127 6.55078 39.8127C7.84516 39.8127 8.89453 38.7634 8.89453 37.469Z" stroke="white" stroke-width="2" stroke-miterlimit="10" stroke-linecap="round" stroke-linejoin="round"/>
<path d="M37.0195 37.469C37.0195 36.1745 35.9702 35.1252 34.6758 35.1252C33.3814 35.1252 32.332 36.1745 32.332 37.469C32.332 38.7634 33.3814 39.8127 34.6758 39.8127C35.9702 39.8127 37.0195 38.7634 37.0195 37.469Z" stroke="white" stroke-width="2" stroke-miterlimit="10" stroke-linecap="round" stroke-linejoin="round"/>
<path d="M20.6133 35.1252V30.3596" stroke="white" stroke-width="2" stroke-miterlimit="10" stroke-linecap="round" stroke-linejoin="round"/>
<path d="M32.332 37.469H29.9883C28.6939 37.469 27.6445 36.4197 27.6445 35.1252V30.3596" stroke="white" stroke-width="2" stroke-miterlimit="10" stroke-linecap="round" stroke-linejoin="round"/>
<path d="M8.89453 37.469H11.2383C12.5327 37.469 13.582 36.4197 13.582 35.1252V30.3596" stroke="white" stroke-width="2" stroke-miterlimit="10" stroke-linecap="round" stroke-linejoin="round"/>
<path d="M39.4414 16.2971C39.4414 17.5916 38.392 18.6409 37.0977 18.6409C35.8033 18.6409 34.7539 17.5916 34.7539 16.2971C34.7539 15.0027 35.8033 13.9534 37.0977 13.9534C38.392 13.9534 39.4414 15.0027 39.4414 16.2971Z" stroke="white" stroke-width="2" stroke-miterlimit="10" stroke-linecap="round" stroke-linejoin="round"/>
<path d="M6.47266 16.2971C6.47266 17.5916 5.42328 18.6409 4.12891 18.6409C2.83453 18.6409 1.78516 17.5916 1.78516 16.2971C1.78516 15.0027 2.83453 13.9534 4.12891 13.9534C5.42328 13.9534 6.47266 15.0027 6.47266 16.2971Z" stroke="white" stroke-width="2" stroke-miterlimit="10" stroke-linecap="round" stroke-linejoin="round"/>
<path d="M39.4414 25.6721C39.4414 26.9666 38.392 28.0159 37.0977 28.0159C35.8033 28.0159 34.7539 26.9666 34.7539 25.6721C34.7539 24.3777 35.8033 23.3284 37.0977 23.3284C38.392 23.3284 39.4414 24.3777 39.4414 25.6721Z" stroke="white" stroke-width="2" stroke-miterlimit="10" stroke-linecap="round" stroke-linejoin="round"/>
<path d="M6.47266 25.6721C6.47266 26.9666 5.42328 28.0159 4.12891 28.0159C2.83453 28.0159 1.78516 26.9666 1.78516 25.6721C1.78516 24.3777 2.83453 23.3284 4.12891 23.3284C5.42328 23.3284 6.47266 24.3777 6.47266 25.6721Z" stroke="white" stroke-width="2" stroke-miterlimit="10" stroke-linecap="round" stroke-linejoin="round"/>
<path d="M6.47266 16.2971H11.2383" stroke="white" stroke-width="2" stroke-miterlimit="10" stroke-linecap="round" stroke-linejoin="round"/>
<path d="M29.9883 16.2971H34.7539" stroke="white" stroke-width="2" stroke-miterlimit="10" stroke-linecap="round" stroke-linejoin="round"/>
<path d="M34.7539 25.6721H29.9883" stroke="white" stroke-width="2" stroke-miterlimit="10" stroke-linecap="round" stroke-linejoin="round"/>
<path d="M11.2383 25.6721H6.47266" stroke="white" stroke-width="2" stroke-miterlimit="10" stroke-linecap="round" stroke-linejoin="round"/>
<path d="M25.3008 25.6721H15.9258V16.2971H25.3008V25.6721Z" stroke="white" stroke-width="2" stroke-miterlimit="10" stroke-linecap="round" stroke-linejoin="round"/>
</g>
</g>
<defs>
<clipPath id="clip0_3409_4468">
<rect width="40" height="40" fill="white" transform="translate(0.613281 0.984619)"/>
</clipPath>
</defs>
</svg>
