<svg width="65" height="65" viewBox="0 0 65 65" fill="none" xmlns="http://www.w3.org/2000/svg">
<rect x="0.121094" y="0.0193176" width="64" height="64" rx="13.4737" fill="#00AEEF"/>
<rect x="0.682497" y="0.580721" width="62.8772" height="62.8772" rx="12.9123" stroke="white" stroke-opacity="0.06" stroke-width="1.12281"/>
<g clip-path="url(#clip0_3415_6197)">
<path d="M16.8086 50.4568C15.0827 50.4568 13.6836 49.0577 13.6836 47.3318C13.6836 45.606 15.0827 44.2068 16.8086 44.2068C18.5345 44.2068 19.9336 45.606 19.9336 47.3318C19.9336 49.0577 18.5345 50.4568 16.8086 50.4568Z" stroke="white" stroke-width="2" stroke-miterlimit="10" stroke-linecap="round" stroke-linejoin="round"/>
<path d="M32.1211 50.4568C30.3952 50.4568 28.9961 49.0577 28.9961 47.3318C28.9961 45.606 30.3952 44.2068 32.1211 44.2068C33.847 44.2068 35.2461 45.606 35.2461 47.3318C35.2461 49.0577 33.847 50.4568 32.1211 50.4568Z" stroke="white" stroke-width="2" stroke-miterlimit="10" stroke-linecap="round" stroke-linejoin="round"/>
<path d="M47.4336 50.4568C45.7077 50.4568 44.3086 49.0577 44.3086 47.3318C44.3086 45.606 45.7077 44.2068 47.4336 44.2068C49.1595 44.2068 50.5586 45.606 50.5586 47.3318C50.5586 49.0577 49.1595 50.4568 47.4336 50.4568Z" stroke="white" stroke-width="2" stroke-miterlimit="10" stroke-linecap="round" stroke-linejoin="round"/>
<path d="M16.8086 44.2068V41.0818C16.8086 39.356 18.2077 37.9568 19.9336 37.9568H25.8711" stroke="white" stroke-width="2" stroke-miterlimit="10" stroke-linecap="round" stroke-linejoin="round"/>
<path d="M38.3711 37.9568H44.3086C46.0345 37.9568 47.4336 39.356 47.4336 41.0818V44.2068" stroke="white" stroke-width="2" stroke-miterlimit="10" stroke-linecap="round" stroke-linejoin="round"/>
<path d="M32.1211 35.4568V44.2068" stroke="white" stroke-width="2" stroke-miterlimit="10" stroke-linecap="round" stroke-linejoin="round"/>
<path d="M33.6836 16.7068L31.4739 14.4971C30.8878 13.911 30.093 13.5818 29.2641 13.5818H25.8711C24.1452 13.5818 22.7461 14.981 22.7461 16.7068V26.0818C22.7461 27.8077 24.1452 29.2068 25.8711 29.2068H38.3711C40.097 29.2068 41.4961 27.8077 41.4961 26.0818V19.8318C41.4961 18.106 40.097 16.7068 38.3711 16.7068H33.6836Z" stroke="white" stroke-width="2" stroke-miterlimit="10" stroke-linecap="round" stroke-linejoin="round"/>
</g>
<defs>
<clipPath id="clip0_3415_6197">
<rect width="40" height="40" fill="white" transform="translate(12.1211 12.0193)"/>
</clipPath>
</defs>
</svg>
