<svg width="40" height="40" viewBox="0 0 40 40" fill="none" xmlns="http://www.w3.org/2000/svg">
<path fill-rule="evenodd" clip-rule="evenodd" d="M22.9167 5.00001C22.9167 4.44501 22.55 3.95501 22.0167 3.80001C21.4833 3.64501 20.91 3.86001 20.6117 4.32835L8.94498 22.6617C8.69998 23.0467 8.68498 23.535 8.90498 23.935C9.12332 24.335 9.54332 24.5834 9.99998 24.5834H17.0833V35C17.0833 35.545 17.4367 36.0284 17.9583 36.1917C18.4783 36.3567 19.045 36.1634 19.3567 35.7167L31.0233 19.05C31.2917 18.6684 31.3233 18.17 31.1083 17.7567C30.8933 17.3434 30.4667 17.0834 30 17.0834H22.9167V5.00001ZM20.4167 9.29334V18.3334C20.4167 19.0234 20.9767 19.5834 21.6667 19.5834H27.6L19.5833 31.035V23.3334C19.5833 22.6434 19.0233 22.0834 18.3333 22.0834H12.2767L20.4167 9.29334Z" fill="white"/>
</svg>
