<svg width="41" height="40" viewBox="0 0 41 40" fill="none" xmlns="http://www.w3.org/2000/svg">
<path d="M2.83313 23.2005C1.68603 23.7556 1.10486 25.0463 1.48142 26.2043C2.35209 28.8685 3.74733 31.2781 5.63014 33.3721C6.45074 34.2732 7.84599 34.4212 8.87337 33.7116C9.99871 32.9367 11.4875 32.8758 12.6695 33.5571C13.8645 34.2471 14.5414 35.5291 14.4369 36.9026C14.3455 38.1999 15.1922 39.3296 16.4547 39.5886C17.7737 39.8629 19.1342 40 20.5011 40C21.8659 40 23.2263 39.8629 24.5475 39.5886C25.8078 39.3274 26.6545 38.1977 26.5631 36.9004C26.4608 35.5291 27.1378 34.2471 28.3306 33.5571C29.5147 32.8758 31.0013 32.9345 32.1288 33.7138C33.1541 34.4212 34.5515 34.2732 35.3721 33.3699C37.2527 31.2781 38.6479 28.8685 39.5186 26.2043C39.8974 25.0463 39.314 23.7556 38.1669 23.2005C36.948 22.6106 36.16 21.3547 36.16 19.9986C36.16 18.6252 36.9306 17.3975 38.1669 16.7968C39.314 16.2439 39.8952 14.951 39.5186 13.793C38.6458 11.1266 37.2505 8.71482 35.3699 6.62522C34.5471 5.7219 33.1541 5.57389 32.131 6.28566C31.0035 7.0649 29.5103 7.12367 28.3306 6.43803C27.1552 5.76108 26.4608 4.45073 26.5631 3.09685C26.6567 1.79738 25.8056 0.667691 24.5453 0.410845C21.9072 -0.137674 19.0885 -0.135497 16.459 0.408669C15.1922 0.667691 14.3433 1.79956 14.4391 3.09685C14.5392 4.45073 13.8449 5.76108 12.6695 6.4402C11.4875 7.11932 9.99653 7.06273 8.87555 6.28784C7.84163 5.57607 6.44857 5.71973 5.63014 6.6274C3.7495 8.71482 2.35426 11.1266 1.48142 13.793C1.10486 14.951 1.68603 16.2439 2.83095 16.7968C4.06947 17.3975 4.84001 18.6252 4.84001 19.9986C4.84001 21.3547 4.05206 22.6106 2.83313 23.2005ZM7.06892 19.9986C7.06892 17.7632 5.81734 15.7672 3.80392 14.7899C3.67767 14.7289 3.56449 14.5962 3.60149 14.4852C4.37421 12.1148 5.61491 9.9751 7.28441 8.12276C7.34971 8.0444 7.49772 8.0444 7.60655 8.12276C9.43713 9.38523 11.8663 9.47882 13.7839 8.3709C15.6929 7.26951 16.8225 5.1342 16.6636 2.9336C16.6506 2.75946 16.7442 2.62669 16.9074 2.59186C19.2452 2.10864 21.7505 2.10646 24.097 2.59404C24.2559 2.62669 24.3516 2.76164 24.3386 2.9336C24.1753 5.1342 25.305 7.26733 27.2161 8.36873C29.1359 9.481 31.5651 9.38305 33.3978 8.11841C33.5089 8.0444 33.646 8.04658 33.7156 8.12059C35.3851 9.9751 36.6258 12.1148 37.3985 14.4852C37.4356 14.5962 37.3224 14.7289 37.1939 14.7899C35.1827 15.7672 33.9311 17.7632 33.9311 19.9986C33.9311 22.2036 35.2132 24.2475 37.1961 25.2074C37.3376 25.2749 37.4312 25.4142 37.3985 25.5121C36.6258 27.8782 35.3873 30.02 33.7156 31.8745C33.646 31.9529 33.5023 31.9529 33.3935 31.8789C31.5673 30.6164 29.1381 30.5163 27.2161 31.6285C25.2767 32.7495 24.1731 34.8326 24.3386 37.0637C24.3516 37.2378 24.2559 37.3728 24.097 37.4076C21.7462 37.8908 19.2408 37.8908 16.9074 37.4076C16.7442 37.3728 16.6484 37.2378 16.6615 37.0659C16.8269 34.8696 15.6972 32.7343 13.7839 31.6285C12.8937 31.1127 11.8946 30.858 10.8977 30.858C9.74186 30.858 8.58823 31.1997 7.60873 31.8767C7.49772 31.9507 7.35188 31.955 7.28658 31.8767C5.61273 30.02 4.37421 27.8782 3.60149 25.5121C3.56884 25.4142 3.66244 25.2749 3.80392 25.2074C5.78686 24.2475 7.06892 22.2036 7.06892 19.9986Z" fill="white"/>
<path d="M20.5013 27.0837C24.4084 27.0837 27.5863 23.9057 27.5863 19.9986C27.5863 16.0915 24.4084 12.9136 20.5013 12.9136C16.5942 12.9136 13.4141 16.0915 13.4141 19.9986C13.4141 23.9057 16.5942 27.0837 20.5013 27.0837ZM20.5013 15.1425C23.1786 15.1425 25.3574 17.3213 25.3574 19.9986C25.3574 22.6759 23.1786 24.8547 20.5013 24.8547C17.8218 24.8547 15.643 22.6759 15.643 19.9986C15.643 17.3213 17.8218 15.1425 20.5013 15.1425Z" fill="white"/>
</svg>
