<svg width="41" height="41" viewBox="0 0 41 41" fill="none" xmlns="http://www.w3.org/2000/svg">
<mask id="mask0_3415_5282" style="mask-type:luminance" maskUnits="userSpaceOnUse" x="0" y="0" width="41" height="41">
<path d="M0.613281 0.676884H40.6133V40.6769H0.613281V0.676884Z" fill="white"/>
</mask>
<g mask="url(#mask0_3415_5282)">
<path d="M21.2997 33.0334C21.2997 33.4128 20.9921 33.7203 20.6127 33.7203C20.2334 33.7203 19.9258 33.4128 19.9258 33.0334C19.9258 32.654 20.2334 32.3464 20.6127 32.3464C20.9921 32.3464 21.2997 32.654 21.2997 33.0334Z" fill="white"/>
<path d="M16.6555 27.3619C7.16641 25.3448 1.19922 16.7323 1.19922 16.7323C1.19922 16.7323 8.85469 5.68381 20.6133 5.68381C32.3719 5.68381 40.0273 16.7323 40.0273 16.7323C40.0273 16.7323 38.6609 18.7033 36.1977 20.9807" stroke="white" stroke-width="2" stroke-miterlimit="10" stroke-linecap="round" stroke-linejoin="round"/>
<path d="M34.1117 22.7471C31.5992 24.6916 28.3664 26.5549 24.5703 27.3619" stroke="white" stroke-width="2" stroke-miterlimit="10" stroke-linecap="round" stroke-linejoin="round"/>
<path d="M18.7453 9.8792C19.3406 9.7167 19.9672 9.62998 20.6141 9.62998C24.5367 9.62998 27.7164 12.8097 27.7164 16.7323C27.7164 20.6558 24.5367 23.8354 20.6141 23.8354C16.6914 23.8354 13.5117 20.6558 13.5117 16.7323C13.5117 14.4269 14.6102 12.3784 16.3117 11.0823" stroke="white" stroke-width="2" stroke-miterlimit="10" stroke-linecap="round" stroke-linejoin="round"/>
<path d="M23.7705 16.7327C23.7705 18.4761 22.3572 19.8894 20.6138 19.8894C18.8704 19.8894 17.457 18.4761 17.457 16.7327C17.457 14.9892 18.8704 13.5759 20.6138 13.5759C22.3572 13.5759 23.7705 14.9892 23.7705 16.7327Z" stroke="white" stroke-width="2" stroke-miterlimit="10" stroke-linecap="round" stroke-linejoin="round"/>
<path d="M26.6673 30.7081L26.7478 30.8362C28.0657 32.9385 26.5548 35.6698 24.0735 35.6698H17.1517C14.6704 35.6698 13.1595 32.9385 14.4775 30.8362L17.9376 25.3151C19.1751 23.3417 22.0501 23.3417 23.2876 25.3151L25.2157 28.3917" stroke="white" stroke-width="2" stroke-miterlimit="10" stroke-linecap="round" stroke-linejoin="round"/>
<path d="M20.623 30.4733V26.3411" stroke="white" stroke-width="2" stroke-miterlimit="10" stroke-linecap="round" stroke-linejoin="round"/>
<path d="M26.375 12.4711H28.5058" stroke="white" stroke-width="2" stroke-miterlimit="10" stroke-linecap="round" stroke-linejoin="round"/>
<path d="M31.0312 12.471C31.0312 13.1684 30.4659 13.7338 29.7685 13.7338C29.0712 13.7338 28.5059 13.1684 28.5059 12.471C28.5059 11.7736 29.0712 11.2083 29.7685 11.2083C30.4659 11.2083 31.0312 11.7736 31.0312 12.471Z" stroke="white" stroke-width="2" stroke-miterlimit="10" stroke-linecap="round" stroke-linejoin="round"/>
<path d="M26.375 20.9943H27.7955H28.5058" stroke="white" stroke-width="2" stroke-miterlimit="10" stroke-linecap="round" stroke-linejoin="round"/>
<path d="M31.0312 20.9942C31.0312 20.2969 30.4659 19.7315 29.7685 19.7315C29.0712 19.7315 28.5059 20.2969 28.5059 20.9942C28.5059 21.6916 29.0712 22.257 29.7685 22.257C30.4659 22.257 31.0312 21.6916 31.0312 20.9942Z" stroke="white" stroke-width="2" stroke-miterlimit="10" stroke-linecap="round" stroke-linejoin="round"/>
<path d="M33.5566 16.7326C33.5566 17.43 32.9913 17.9954 32.2939 17.9954C31.5966 17.9954 31.0312 17.43 31.0312 16.7326C31.0312 16.0352 31.5966 15.4699 32.2939 15.4699C32.9913 15.4699 33.5566 16.0352 33.5566 16.7326Z" stroke="white" stroke-width="2" stroke-miterlimit="10" stroke-linecap="round" stroke-linejoin="round"/>
<path d="M31.0314 16.7327H27.7168" stroke="white" stroke-width="2" stroke-miterlimit="10" stroke-linecap="round" stroke-linejoin="round"/>
<path d="M14.8515 12.4711H12.7207" stroke="white" stroke-width="2" stroke-miterlimit="10" stroke-linecap="round" stroke-linejoin="round"/>
<path d="M10.1953 12.471C10.1953 13.1684 10.7606 13.7338 11.458 13.7338C12.1554 13.7338 12.7207 13.1684 12.7207 12.471C12.7207 11.7736 12.1554 11.2083 11.458 11.2083C10.7606 11.2083 10.1953 11.7736 10.1953 12.471Z" stroke="white" stroke-width="2" stroke-miterlimit="10" stroke-linecap="round" stroke-linejoin="round"/>
<path d="M14.8515 20.9943H13.4309H12.7207" stroke="white" stroke-width="2" stroke-miterlimit="10" stroke-linecap="round" stroke-linejoin="round"/>
<path d="M10.1953 20.9942C10.1953 20.2969 10.7606 19.7315 11.458 19.7315C12.1554 19.7315 12.7207 20.2969 12.7207 20.9942C12.7207 21.6916 12.1554 22.257 11.458 22.257C10.7606 22.257 10.1953 21.6916 10.1953 20.9942Z" stroke="white" stroke-width="2" stroke-miterlimit="10" stroke-linecap="round" stroke-linejoin="round"/>
<path d="M7.66992 16.7326C7.66992 17.43 8.23523 17.9954 8.93266 17.9954C9.63 17.9954 10.1953 17.43 10.1953 16.7326C10.1953 16.0352 9.63 15.4699 8.93266 15.4699C8.23523 15.4699 7.66992 16.0352 7.66992 16.7326Z" stroke="white" stroke-width="2" stroke-miterlimit="10" stroke-linecap="round" stroke-linejoin="round"/>
<path d="M10.1953 16.7327H13.5099" stroke="white" stroke-width="2" stroke-miterlimit="10" stroke-linecap="round" stroke-linejoin="round"/>
</g>
</svg>
