<svg width="62" height="61" viewBox="0 0 62 61" fill="none" xmlns="http://www.w3.org/2000/svg">
<ellipse cx="31" cy="30.5" rx="31" ry="30.5" fill="#C4C4C4"/>
<ellipse cx="31" cy="30.5" rx="31" ry="30.5" fill="url(#paint0_linear_3184_4737)"/>
<path d="M21.24 37.76C20.7267 37.76 20.2233 37.6733 19.73 37.5C19.2433 37.3267 18.8 37.07 18.4 36.73L19.96 34.85C20.1067 34.97 20.2867 35.08 20.5 35.18C20.7133 35.2733 20.96 35.32 21.24 35.32C21.6067 35.32 21.94 35.2267 22.24 35.04C22.54 34.8467 22.78 34.5967 22.96 34.29C23.1467 33.9767 23.24 33.6367 23.24 33.27V23.5H25.68V33.27C25.68 34.09 25.48 34.84 25.08 35.52C24.68 36.1933 24.1433 36.7367 23.47 37.15C22.7967 37.5567 22.0533 37.76 21.24 37.76ZM28.0867 37.5V23.5H30.7267L36.6367 33.09V23.5H39.0767V37.5H36.4467L30.5267 27.91V37.5H28.0867Z" fill="white"/>
<defs>
<linearGradient id="paint0_linear_3184_4737" x1="31" y1="0" x2="31" y2="61" gradientUnits="userSpaceOnUse">
<stop stop-color="#F89B29"/>
<stop offset="1" stop-color="#00AEEF"/>
</linearGradient>
</defs>
</svg>
