<svg width="41" height="41" viewBox="0 0 41 41" fill="none" xmlns="http://www.w3.org/2000/svg">
<g clip-path="url(#clip0_3415_5355)">
<path d="M34.4527 34.4893C34.4527 37.3917 32.0995 39.7449 29.1971 39.7449H12.6462C9.74391 39.7449 7.39062 37.3917 7.39062 34.4893V6.1723C7.39062 3.27003 9.74383 0.916748 12.6462 0.916748H29.1972C32.0995 0.916748 34.4527 3.26995 34.4527 6.1723C34.4527 7.06925 34.4527 33.0807 34.4527 34.4893Z" stroke="white" stroke-width="2" stroke-miterlimit="10" stroke-linecap="round" stroke-linejoin="round"/>
<path d="M10.9199 13.8597V31.848C10.9199 32.9605 11.8215 33.862 12.934 33.862H28.909C30.0215 33.862 30.923 32.9605 30.923 31.848C30.923 30.7105 30.923 7.46594 30.923 6.46047C30.923 5.34797 30.0215 4.44641 28.909 4.44641H12.934C11.8215 4.44641 10.9199 5.34797 10.9199 6.46047V11.1253" stroke="white" stroke-width="2" stroke-miterlimit="10" stroke-linecap="round" stroke-linejoin="round"/>
<path d="M19.7441 36.8033H22.0974" stroke="white" stroke-width="2" stroke-miterlimit="10" stroke-linecap="round" stroke-linejoin="round"/>
<path d="M16.0234 27.7177V28.531" stroke="white" stroke-width="2" stroke-miterlimit="10" stroke-linecap="round" stroke-linejoin="round"/>
<path d="M25.8203 27.7177V28.531" stroke="white" stroke-width="2" stroke-miterlimit="10" stroke-linecap="round" stroke-linejoin="round"/>
<path d="M22.2131 29.1553C21.5296 28.371 20.3145 28.3709 19.6309 29.1553" stroke="white" stroke-width="2" stroke-miterlimit="10" stroke-linecap="round" stroke-linejoin="round"/>
<path d="M15.0625 26.814L16.9498 27.3191" stroke="white" stroke-width="2" stroke-miterlimit="10" stroke-linecap="round" stroke-linejoin="round"/>
<path d="M26.7798 26.814L24.8926 27.3191" stroke="white" stroke-width="2" stroke-miterlimit="10" stroke-linecap="round" stroke-linejoin="round"/>
<path d="M27.0415 16.166L27.9173 17.8051C29.2899 20.3715 27.5751 23.5801 24.8313 23.5801H17.0126C14.2688 23.5801 12.554 20.3715 13.9266 17.8051L17.8352 10.4902C19.2079 7.92302 22.636 7.92302 24.0087 10.4902L25.7524 13.7535" stroke="white" stroke-width="2" stroke-miterlimit="10" stroke-linecap="round" stroke-linejoin="round"/>
<path d="M20.9208 16.2127C20.2713 16.2127 19.7441 15.6856 19.7441 15.0361V12.6829C19.7441 12.0334 20.2713 11.5062 20.9208 11.5062C21.2455 11.5062 21.5397 11.638 21.7523 11.8514C21.9656 12.064 22.0974 12.3581 22.0974 12.6829V15.0361C22.0974 15.6856 21.5703 16.2127 20.9208 16.2127Z" stroke="white" stroke-width="2" stroke-miterlimit="10" stroke-linecap="round" stroke-linejoin="round"/>
<path d="M20.9208 20.9192C21.5706 20.9192 22.0974 20.3924 22.0974 19.7426C22.0974 19.0927 21.5706 18.5659 20.9208 18.5659C20.2709 18.5659 19.7441 19.0927 19.7441 19.7426C19.7441 20.3924 20.2709 20.9192 20.9208 20.9192Z" stroke="white" stroke-width="2" stroke-miterlimit="10" stroke-linecap="round" stroke-linejoin="round"/>
</g>
<defs>
<clipPath id="clip0_3415_5355">
<rect width="40" height="40" fill="white" transform="translate(0.921875 0.330811)"/>
</clipPath>
</defs>
</svg>
