<svg width="41" height="41" viewBox="0 0 41 41" fill="none" xmlns="http://www.w3.org/2000/svg">
<g clip-path="url(#clip0_3415_4531)">
<path d="M9.88289 16.4641L10.9603 16.6134C11.2427 17.7627 11.6955 18.8532 12.3113 19.8673L11.6557 20.7328C11.4199 21.0441 11.4502 21.4816 11.7266 21.7574L14.3963 24.4223C14.6719 24.6974 15.108 24.7276 15.4187 24.4929L16.2877 23.8371C17.3041 24.4525 18.3971 24.9048 19.5494 25.1867L19.6988 26.261C19.7526 26.6472 20.0828 26.9346 20.4727 26.9346H24.2483C24.6381 26.9346 24.9684 26.6471 25.0221 26.261L25.1716 25.1867C26.3237 24.9048 27.4167 24.4525 28.4333 23.8371L29.3021 24.4929C29.613 24.7275 30.0491 24.6974 30.3247 24.4223L32.9944 21.7574C33.2708 21.4816 33.301 21.0441 33.0652 20.7328L32.4096 19.8673C33.0255 18.8533 33.4782 17.7627 33.7606 16.6134L34.838 16.4641C35.2244 16.4105 35.512 16.0802 35.512 15.6902V11.9216C35.512 11.5316 35.2244 11.2013 34.838 11.1477L33.7606 10.9984C33.4782 9.84907 33.0254 8.75852 32.4096 7.74454L33.0652 6.87891C33.301 6.56766 33.2708 6.13008 32.9944 5.8543L30.3247 3.18946C30.0491 2.91438 29.613 2.88415 29.3021 3.11883L28.4332 3.77461C27.4167 3.1593 26.3237 2.70704 25.1716 2.425L25.0221 1.35071C24.9683 0.96438 24.6381 0.67688 24.2483 0.67688H20.4727C20.0828 0.67688 19.7526 0.964302 19.6988 1.35047L19.5494 2.42477C18.3972 2.7068 17.3041 3.15907 16.2877 3.77438L15.4188 3.1186C15.108 2.88391 14.6718 2.91415 14.3963 3.18922L11.7266 5.85407C11.4502 6.12985 11.42 6.56743 11.6558 6.87868L12.3114 7.7443C11.6955 8.75829 11.2427 9.84883 10.9604 10.9981L9.88297 11.1475C9.49664 11.2011 9.20898 11.5313 9.20898 11.9213V15.69C9.20891 16.0802 9.49656 16.4106 9.88289 16.4641ZM10.7714 12.602L11.7132 12.4714C12.0437 12.4256 12.3086 12.175 12.3727 11.8476C12.6328 10.5177 13.1503 9.27133 13.9107 8.14352C14.0975 7.86649 14.0874 7.50141 13.8857 7.23508L13.3128 6.4786L15.0196 4.77485L15.7796 5.34844C16.0456 5.54915 16.4095 5.55907 16.6859 5.37336C17.816 4.61422 19.0649 4.09758 20.3978 3.83774C20.7253 3.77391 20.9761 3.50907 21.0221 3.17852L21.1527 2.23938H23.5681L23.6988 3.17852C23.7448 3.50899 23.9955 3.77383 24.323 3.83774C25.656 4.09758 26.9048 4.61422 28.035 5.37336C28.3116 5.55922 28.6753 5.54915 28.9413 5.34844L29.7013 4.77485L31.4081 6.4786L30.8352 7.23508C30.6334 7.50141 30.6234 7.86649 30.8102 8.14352C31.5705 9.27133 32.088 10.5176 32.3483 11.8476C32.4123 12.175 32.6773 12.4256 33.0077 12.4714L33.9495 12.602V15.0098L33.0077 15.1404C32.6773 15.1862 32.4123 15.4368 32.3483 15.7642C32.088 17.0942 31.5705 18.3406 30.8102 19.4683C30.6234 19.7453 30.6335 20.1104 30.8352 20.3767L31.4081 21.1331L29.7013 22.8369L28.9413 22.2633C28.6754 22.0626 28.3116 22.0527 28.035 22.2384C26.9049 22.9976 25.6561 23.5142 24.3231 23.774C23.9956 23.8378 23.7448 24.1027 23.6988 24.4332L23.5681 25.3723H21.1527L21.022 24.4332C20.976 24.1027 20.7252 23.8379 20.3977 23.774C19.0648 23.5142 17.8159 22.9976 16.6859 22.2384C16.4093 22.0527 16.0455 22.0626 15.7795 22.2633L15.0195 22.8369L13.3127 21.1331L13.8856 20.3767C14.0873 20.1104 14.0974 19.7453 13.9106 19.4683C13.1502 18.3404 12.6327 17.0941 12.3726 15.7642C12.3085 15.4368 12.0437 15.1863 11.7131 15.1404L10.7713 15.0098L10.7714 12.602Z" fill="white"/>
<path d="M22.3597 21.7242C26.7259 21.7242 30.278 18.172 30.278 13.8059C30.278 9.43968 26.7259 5.88757 22.3597 5.88757C17.9935 5.88757 14.4414 9.43976 14.4414 13.8059C14.4413 18.172 17.9934 21.7242 22.3597 21.7242ZM22.3597 7.45C25.8643 7.45 28.7155 10.3012 28.7155 13.8058C28.7155 17.3104 25.8643 20.1616 22.3597 20.1616C18.8551 20.1616 16.0039 17.3104 16.0039 13.8058C16.0039 10.3012 18.8551 7.45 22.3597 7.45Z" fill="white"/>
<path d="M36.0459 26.1325C34.8153 25.2617 33.1545 25.4125 32.0965 26.4914C32.0638 26.5248 32.0342 26.561 32.008 26.5996L28.8655 31.2265C28.3922 30.1071 27.2949 29.321 26.0202 29.321L16.2592 29.3192H16.2588C15.6 29.3192 14.9679 29.5207 14.4306 29.9019L13.1588 30.8044H5.35547C4.92398 30.8044 4.57422 31.1543 4.57422 31.5857V39.001C4.57422 39.4324 4.92398 39.7822 5.35547 39.7822H10.0459C10.4773 39.7822 10.8271 39.4324 10.8271 39.001V38.587H13.0966L14.5387 39.9525C15.0323 40.4196 15.6782 40.6769 16.3577 40.6769H28.4209C29.4945 40.6769 30.4848 40.1394 31.0698 39.2391L36.5616 30.7872C37.5212 29.3343 37.6521 27.2689 36.0459 26.1325ZM9.26461 38.2196H6.13672V32.3668H9.26461V38.2196ZM35.2547 29.931L29.7597 38.3877C29.4641 38.8427 28.9636 39.1143 28.421 39.1143H16.3578C16.0796 39.1143 15.8151 39.0089 15.613 38.8177L13.9448 37.2383C13.7998 37.1009 13.6076 37.0244 13.4077 37.0244H10.8271V32.3668H13.4077C13.5698 32.3668 13.7277 32.3164 13.8598 32.2227L15.3347 31.1761C15.6063 30.9835 15.9256 30.8816 16.2586 30.8816H16.2588L26.02 30.8834C26.8647 30.8834 27.552 31.5906 27.552 32.4599C27.552 33.3164 26.8758 34.0229 26.0441 34.036H26.0414C26.0366 34.0361 26.0319 34.0362 26.0271 34.0364H19.5211C19.0896 34.0364 18.7398 34.3862 18.7398 34.8176C18.7398 35.249 19.0896 35.5989 19.5211 35.5989H26.0392C26.0496 35.5989 26.06 35.5986 26.0703 35.5982C27.1667 35.5819 28.1851 35.0261 28.792 34.1157L33.2571 27.5414C33.7763 27.0533 34.5595 26.9947 35.1434 27.408H35.1435C35.9387 27.9707 35.803 29.1007 35.2547 29.931Z" fill="white"/>
</g>
<defs>
<clipPath id="clip0_3415_4531">
<rect width="40" height="40" fill="white" transform="translate(0.921875 0.67688)"/>
</clipPath>
</defs>
</svg>
