<svg width="62" height="62" viewBox="0 0 62 62" fill="none" xmlns="http://www.w3.org/2000/svg">
<ellipse cx="31" cy="31" rx="31" ry="30.5" fill="#C4C4C4"/>
<ellipse cx="31" cy="31" rx="31" ry="30.5" fill="#00AEEF"/>
<path d="M24.24 38.26C23.4667 38.26 22.7233 38.14 22.01 37.9C21.3033 37.6533 20.6833 37.3033 20.15 36.85C19.6167 36.39 19.2333 35.84 19 35.2L21.29 34.36C21.3833 34.6267 21.5733 34.87 21.86 35.09C22.1467 35.31 22.4967 35.4867 22.91 35.62C23.3233 35.7533 23.7667 35.82 24.24 35.82C24.7267 35.82 25.18 35.7467 25.6 35.6C26.0267 35.4467 26.37 35.2367 26.63 34.97C26.89 34.6967 27.02 34.38 27.02 34.02C27.02 33.6533 26.8833 33.3533 26.61 33.12C26.3367 32.88 25.9867 32.69 25.56 32.55C25.1333 32.41 24.6933 32.3033 24.24 32.23C23.2467 32.0767 22.3567 31.84 21.57 31.52C20.7833 31.2 20.16 30.7567 19.7 30.19C19.2467 29.6233 19.02 28.89 19.02 27.99C19.02 27.1433 19.2633 26.4033 19.75 25.77C20.2367 25.1367 20.8767 24.6433 21.67 24.29C22.4633 23.9367 23.32 23.76 24.24 23.76C25.0067 23.76 25.7467 23.88 26.46 24.12C27.1733 24.36 27.7967 24.71 28.33 25.17C28.87 25.63 29.2567 26.1833 29.49 26.83L27.19 27.66C27.0967 27.3933 26.9067 27.15 26.62 26.93C26.3333 26.71 25.9833 26.5367 25.57 26.41C25.1567 26.2767 24.7133 26.21 24.24 26.21C23.7667 26.2033 23.3167 26.28 22.89 26.44C22.47 26.5933 22.1267 26.8033 21.86 27.07C21.5933 27.3367 21.46 27.6433 21.46 27.99C21.46 28.4367 21.5833 28.7733 21.83 29C22.0833 29.2267 22.42 29.3933 22.84 29.5C23.26 29.6 23.7267 29.6933 24.24 29.78C25.1733 29.9267 26.0367 30.1733 26.83 30.52C27.6233 30.8667 28.26 31.33 28.74 31.91C29.22 32.4833 29.46 33.1867 29.46 34.02C29.46 34.8667 29.22 35.61 28.74 36.25C28.26 36.8833 27.6233 37.3767 26.83 37.73C26.0367 38.0833 25.1733 38.26 24.24 38.26ZM31.6805 38L34.4005 24H36.4205L39.8305 32.97L43.2405 24H45.2605L47.9805 38H45.4905L43.8105 29.34L40.6605 37.68H38.9905L35.8405 29.34L34.1705 38H31.6805Z" fill="white"/>
</svg>
