<svg width="41" height="41" viewBox="0 0 41 41" fill="none" xmlns="http://www.w3.org/2000/svg">
<mask id="mask0_3415_5372" style="mask-type:luminance" maskUnits="userSpaceOnUse" x="0" y="0" width="41" height="41">
<path d="M0.767578 0.330814H40.7676V40.3308H0.767578V0.330814Z" fill="white"/>
</mask>
<g mask="url(#mask0_3415_5372)">
<path d="M33.4023 32.9089C33.4023 33.5561 32.8777 34.0808 32.2305 34.0808C31.5833 34.0808 31.0586 33.5561 31.0586 32.9089C31.0586 32.2617 31.5833 31.7371 32.2305 31.7371C32.8777 31.7371 33.4023 32.2617 33.4023 32.9089Z" fill="white"/>
<path d="M27.5691 32.9089H13.9668" stroke="white" stroke-width="2" stroke-miterlimit="10" stroke-linecap="round" stroke-linejoin="round"/>
<path d="M34.0488 27.5339V1.50269H7.48633V27.5339" stroke="white" stroke-width="2" stroke-miterlimit="10" stroke-linecap="round" stroke-linejoin="round"/>
<path d="M8.13281 32.9089C8.13281 33.5561 8.6575 34.0808 9.30469 34.0808C9.95187 34.0808 10.4766 33.5561 10.4766 32.9089C10.4766 32.2617 9.95187 31.7371 9.30469 31.7371C8.6575 31.7371 8.13281 32.2617 8.13281 32.9089Z" fill="white"/>
<path d="M20.7676 6.34644C16.4528 6.34644 12.9551 9.84417 12.9551 14.1589V18.8464L16.0801 21.1902V25.0964H25.4551V21.1902L28.5801 18.8464V14.1589C28.5801 9.84417 25.0823 6.34644 20.7676 6.34644Z" stroke="white" stroke-width="2" stroke-miterlimit="10" stroke-linecap="round" stroke-linejoin="round"/>
<path d="M20.7676 25.0964V21.1902" stroke="white" stroke-width="2" stroke-miterlimit="10" stroke-linecap="round" stroke-linejoin="round"/>
<path d="M25.0645 14.1589C25.0645 14.8061 24.5398 15.3308 23.8926 15.3308C23.2454 15.3308 22.7207 14.8061 22.7207 14.1589C22.7207 13.5117 23.2454 12.9871 23.8926 12.9871C24.5398 12.9871 25.0645 13.5117 25.0645 14.1589Z" fill="white"/>
<path d="M16.4707 14.1589C16.4707 14.8061 16.9954 15.3308 17.6426 15.3308C18.2898 15.3308 18.8145 14.8061 18.8145 14.1589C18.8145 13.5117 18.2898 12.9871 17.6426 12.9871C16.9954 12.9871 16.4707 13.5117 16.4707 14.1589Z" fill="white"/>
<path d="M36.8903 32.9089C37.9231 32.2329 38.2665 30.8662 37.6417 29.7839C37.0169 28.7017 35.6615 28.3158 34.5597 28.8722C34.4906 27.6397 33.4788 26.6589 32.229 26.6589C30.9794 26.6589 29.9676 27.6397 29.8985 28.8722C28.7965 28.3158 27.4412 28.7017 26.8164 29.7839C26.1915 30.8662 26.5351 32.2329 27.5679 32.9089C26.5351 33.585 26.1915 34.9517 26.8164 36.0339C27.4412 37.1162 28.7965 37.5021 29.8985 36.9457C29.9676 38.1782 30.9794 39.1589 32.229 39.1589C33.4788 39.1589 34.4906 38.1782 34.5597 36.9457C35.6615 37.5021 37.0169 37.1162 37.6417 36.0339C38.2665 34.9517 37.9231 33.585 36.8903 32.9089Z" stroke="white" stroke-width="2" stroke-miterlimit="10" stroke-linecap="round" stroke-linejoin="round"/>
<path d="M4.64399 32.9089C3.61118 32.2329 3.26774 30.8662 3.89258 29.7839C4.51743 28.7017 5.87282 28.3158 6.97461 28.8722C7.04368 27.6397 8.05547 26.6589 9.30524 26.6589C10.5549 26.6589 11.5667 27.6397 11.6358 28.8722C12.7377 28.3158 14.0931 28.7017 14.7179 29.7839C15.3427 30.8662 14.9992 32.2329 13.9664 32.9089C14.9992 33.585 15.3427 34.9517 14.7179 36.0339C14.0931 37.1162 12.7377 37.5021 11.6358 36.9457C11.5667 38.1782 10.5549 39.1589 9.30524 39.1589C8.05547 39.1589 7.04368 38.1782 6.97461 36.9457C5.87282 37.5021 4.51743 37.1162 3.89258 36.0339C3.26774 34.9517 3.61118 33.585 4.64399 32.9089Z" stroke="white" stroke-width="2" stroke-miterlimit="10" stroke-linecap="round" stroke-linejoin="round"/>
</g>
</svg>
