<svg width="41" height="41" viewBox="0 0 41 41" fill="none" xmlns="http://www.w3.org/2000/svg">
<g clip-path="url(#clip0_3415_4515)">
<path d="M33.5859 21.9221V39.8127H7.33594V22.1565" stroke="white" stroke-width="2" stroke-miterlimit="10"/>
<path d="M33.5763 2.15649H7.34375V7.7379H33.5763V2.15649Z" stroke="white" stroke-width="2" stroke-miterlimit="10"/>
<path d="M13.8984 22.1565C12.0863 22.1565 10.6172 20.6874 10.6172 18.8752V16.5751H17.1797V18.8752C17.1797 20.6874 15.7106 22.1565 13.8984 22.1565Z" stroke="white" stroke-width="2" stroke-miterlimit="10"/>
<path d="M20.4609 22.1565C18.6488 22.1565 17.1797 20.6874 17.1797 18.8752V16.5751H23.7422V18.8752C23.7422 20.6874 22.2731 22.1565 20.4609 22.1565Z" stroke="white" stroke-width="2" stroke-miterlimit="10"/>
<path d="M27.0234 22.1565C25.2113 22.1565 23.7422 20.6874 23.7422 18.8752V16.5751H30.3047V18.8752C30.3047 20.6874 28.8356 22.1565 27.0234 22.1565Z" stroke="white" stroke-width="2" stroke-miterlimit="10"/>
<path d="M10.6172 16.5751L12.7135 8.01697" stroke="white" stroke-width="2" stroke-miterlimit="10"/>
<path d="M4.52344 16.5751H10.6172V18.8753C10.6172 20.6874 9.14812 22.1565 7.33594 22.1565C5.52375 22.1565 4.05469 20.6874 4.05469 18.8753V16.5751L7.60938 7.73792" stroke="white" stroke-width="2" stroke-miterlimit="10"/>
<path d="M30.3053 16.5751L28.209 8.01697" stroke="white" stroke-width="2" stroke-miterlimit="10"/>
<path d="M23.7416 16.5751L22.8301 8.01697" stroke="white" stroke-width="2" stroke-miterlimit="10"/>
<path d="M17.1797 16.5751L18.0912 8.01697" stroke="white" stroke-width="2" stroke-miterlimit="10"/>
<path d="M33.3125 7.73792L36.8672 16.5751V18.8753C36.8672 20.6874 35.3981 22.1565 33.5859 22.1565C31.7738 22.1565 30.3047 20.6874 30.3047 18.8753V16.5751H36.3203" stroke="white" stroke-width="2" stroke-miterlimit="10"/>
<path d="M28.8984 27.2346H22.1797V39.8127H28.8984V27.2346Z" stroke="white" stroke-width="2" stroke-miterlimit="10"/>
<path d="M16.7109 27.2346H12.0234V31.9221H16.7109V27.2346Z" stroke="white" stroke-width="2" stroke-miterlimit="10"/>
</g>
<defs>
<clipPath id="clip0_3415_4515">
<rect width="40" height="40" fill="white" transform="translate(0.460938 0.984619)"/>
</clipPath>
</defs>
</svg>
