<svg width="73" height="72" viewBox="0 0 73 72" fill="none" xmlns="http://www.w3.org/2000/svg">
<rect x="0.5" width="72" height="72" rx="13.4737" fill="#00AEEF"/>
<rect x="1.0614" y="0.561404" width="70.8772" height="70.8772" rx="12.9123" stroke="white" stroke-opacity="0.06" stroke-width="1.12281"/>
<g clip-path="url(#clip0_3415_6804)">
<path d="M34.0014 38.7098C31.8895 39.6128 30.3984 41.7137 30.3984 44.1449V45.3561M42.5999 45.3561V44.1449C42.5999 41.7137 41.1089 39.6128 38.997 38.7098" stroke="white" stroke-width="2" stroke-miterlimit="10" stroke-linecap="round" stroke-linejoin="round"/>
<path d="M40.6136 34.4926V32.8136C40.6136 29.1407 32.3867 29.1407 32.3867 32.8136V34.4926C34.3696 34.7877 35.6027 34.4139 36.5012 32.901C37.3976 34.4138 38.6306 34.7877 40.6136 34.4926Z" stroke="white" stroke-width="2" stroke-miterlimit="10" stroke-linecap="round" stroke-linejoin="round"/>
<path d="M40.6135 34.3067V35.448C40.6135 37.7085 38.7618 39.5603 36.5012 39.5603C34.2385 39.5603 32.3867 37.7085 32.3867 35.448V34.3067" stroke="white" stroke-width="2" stroke-miterlimit="10" stroke-linecap="round" stroke-linejoin="round"/>
<path d="M36.4994 47.1662C42.6646 47.1662 47.6646 42.1663 47.6646 36.001C47.6646 29.8336 42.6646 24.8337 36.4994 24.8337C30.332 24.8337 25.332 29.8336 25.332 36.001C25.332 42.1663 30.332 47.1662 36.4994 47.1662Z" stroke="white" stroke-width="2" stroke-miterlimit="10" stroke-linecap="round" stroke-linejoin="round"/>
<path d="M53.0678 19.4315C51.9265 18.2925 50.0792 18.2925 48.9379 19.4315C47.7967 20.5727 47.7967 22.4223 48.9379 23.5613C50.0792 24.7025 51.9265 24.7025 53.0678 23.5613C54.2068 22.4223 54.2068 20.5727 53.0678 19.4315Z" stroke="white" stroke-width="2" stroke-miterlimit="10" stroke-linecap="round" stroke-linejoin="round"/>
<path d="M44.3945 28.1043L48.9376 23.5613" stroke="white" stroke-width="2" stroke-miterlimit="10" stroke-linecap="round" stroke-linejoin="round"/>
<path d="M19.9324 19.4315C21.0736 18.2925 22.921 18.2925 24.0622 19.4315C25.2034 20.5727 25.2034 22.4223 24.0622 23.5613C22.921 24.7025 21.0736 24.7025 19.9324 23.5613C18.7934 22.4223 18.7934 20.5727 19.9324 19.4315Z" stroke="white" stroke-width="2" stroke-miterlimit="10" stroke-linecap="round" stroke-linejoin="round"/>
<path d="M28.6055 28.1043L24.0625 23.5613" stroke="white" stroke-width="2" stroke-miterlimit="10" stroke-linecap="round" stroke-linejoin="round"/>
<path d="M53.0678 52.5685C51.9265 53.7076 50.0792 53.7076 48.9379 52.5685C47.7967 51.4273 47.7967 49.5799 48.9379 48.4387C50.0792 47.2975 51.9265 47.2975 53.0678 48.4387C54.2068 49.5799 54.2068 51.4273 53.0678 52.5685Z" stroke="white" stroke-width="2" stroke-miterlimit="10" stroke-linecap="round" stroke-linejoin="round"/>
<path d="M44.3945 43.8956L48.9376 48.4387" stroke="white" stroke-width="2" stroke-miterlimit="10" stroke-linecap="round" stroke-linejoin="round"/>
<path d="M19.9324 52.5685C21.0736 53.7076 22.921 53.7076 24.0622 52.5685C25.2034 51.4273 25.2034 49.5799 24.0622 48.4387C22.921 47.2975 21.0736 47.2975 19.9324 48.4387C18.7934 49.5799 18.7934 51.4273 19.9324 52.5685Z" stroke="white" stroke-width="2" stroke-miterlimit="10" stroke-linecap="round" stroke-linejoin="round"/>
<path d="M28.6055 43.8956L24.0625 48.4387" stroke="white" stroke-width="2" stroke-miterlimit="10" stroke-linecap="round" stroke-linejoin="round"/>
<path d="M36.4994 16.7817C35.439 16.7817 34.582 17.6387 34.582 18.6991C34.582 19.7573 35.439 20.6165 36.4994 20.6165C37.5576 20.6165 38.4146 19.7573 38.4146 18.6991C38.4146 17.6387 37.5576 16.7817 36.4994 16.7817Z" stroke="white" stroke-width="2" stroke-miterlimit="10" stroke-linecap="round" stroke-linejoin="round"/>
<path d="M36.5 24.8337V20.6165" stroke="white" stroke-width="2" stroke-miterlimit="10" stroke-linecap="round" stroke-linejoin="round"/>
<path d="M36.4994 55.2182C35.439 55.2182 34.582 54.3612 34.582 53.3009C34.582 52.2427 35.439 51.3835 36.4994 51.3835C37.5576 51.3835 38.4146 52.2427 38.4146 53.3009C38.4146 54.3612 37.5576 55.2182 36.4994 55.2182Z" stroke="white" stroke-width="2" stroke-miterlimit="10" stroke-linecap="round" stroke-linejoin="round"/>
<path d="M36.5 47.1663V51.3836" stroke="white" stroke-width="2" stroke-miterlimit="10" stroke-linecap="round" stroke-linejoin="round"/>
<path d="M17.2812 36.0011C17.2812 37.0592 18.1383 37.9162 19.1986 37.9162C20.2568 37.9162 21.116 37.0592 21.116 36.0011C21.116 34.9407 20.2568 34.0837 19.1986 34.0837C18.1383 34.0838 17.2812 34.9408 17.2812 36.0011Z" stroke="white" stroke-width="2" stroke-miterlimit="10" stroke-linecap="round" stroke-linejoin="round"/>
<path d="M25.3344 36.0011H21.1172" stroke="white" stroke-width="2" stroke-miterlimit="10" stroke-linecap="round" stroke-linejoin="round"/>
<path d="M55.7176 36.0011C55.7176 37.0592 54.8605 37.9162 53.8002 37.9162C52.742 37.9162 51.8828 37.0592 51.8828 36.0011C51.8828 34.9407 52.742 34.0837 53.8002 34.0837C54.8605 34.0838 55.7176 34.9408 55.7176 36.0011Z" stroke="white" stroke-width="2" stroke-miterlimit="10" stroke-linecap="round" stroke-linejoin="round"/>
<path d="M47.6641 36.0011H51.8814" stroke="white" stroke-width="2" stroke-miterlimit="10" stroke-linecap="round" stroke-linejoin="round"/>
</g>
<defs>
<clipPath id="clip0_3415_6804">
<rect width="40" height="40" fill="white" transform="translate(16.5 16)"/>
</clipPath>
</defs>
</svg>
