<svg width="40" height="41" viewBox="0 0 40 41" fill="none" xmlns="http://www.w3.org/2000/svg">
<path d="M2.59547 40.2449H1.70859C1.08859 40.2449 0.585938 39.7422 0.585938 39.1222V37.7594C0.585938 36.2392 1.81828 35.0068 3.33852 35.0068H4.2643" stroke="white" stroke-width="2" stroke-miterlimit="10" stroke-linecap="round" stroke-linejoin="round"/>
<path d="M7.53344 35.0068H8.45922C9.97945 35.0068 11.2118 36.2392 11.2118 37.7594V39.1222C11.2118 39.7422 10.7091 40.2449 10.0891 40.2449H5.30469" stroke="white" stroke-width="2" stroke-miterlimit="10" stroke-linecap="round" stroke-linejoin="round"/>
<path d="M3.27734 32.9369V31.0954C3.27734 29.6583 4.44227 28.4934 5.8793 28.4934C7.31633 28.4934 8.48125 29.6583 8.48125 31.0954V32.9272C8.48125 34.3669 7.31414 35.534 5.87437 35.534C4.44008 35.534 3.27734 34.3713 3.27734 32.9369Z" stroke="white" stroke-width="2" stroke-miterlimit="10" stroke-linecap="round" stroke-linejoin="round"/>
<path d="M3.42383 31.6129H8.37383" stroke="white" stroke-width="2" stroke-miterlimit="10" stroke-linecap="round" stroke-linejoin="round"/>
<path d="M35.7357 35.0068H36.6615C38.1817 35.0068 39.4141 36.2392 39.4141 37.7594V39.1222C39.4141 39.7422 38.9114 40.2449 38.2914 40.2449H29.9117C29.2917 40.2449 28.7891 39.7422 28.7891 39.1222V37.7594C28.7891 36.2392 30.0214 35.0068 31.5416 35.0068H32.4674" stroke="white" stroke-width="2" stroke-miterlimit="10" stroke-linecap="round" stroke-linejoin="round"/>
<path d="M31.4805 32.9369V31.0954C31.4805 29.6583 32.6454 28.4934 34.0824 28.4934C35.5195 28.4934 36.6844 29.6583 36.6844 31.0954V32.9272C36.6844 34.3669 35.5173 35.534 34.0775 35.534C32.6432 35.534 31.4805 34.3713 31.4805 32.9369Z" stroke="white" stroke-width="2" stroke-miterlimit="10" stroke-linecap="round" stroke-linejoin="round"/>
<path d="M31.627 31.6129H36.577" stroke="white" stroke-width="2" stroke-miterlimit="10" stroke-linecap="round" stroke-linejoin="round"/>
<path d="M29.5703 12.5511V22.5105C29.5703 23.2871 28.9406 23.9167 28.1641 23.9167H11.8359C11.0594 23.9167 10.4297 23.2871 10.4297 22.5105V2.823C10.4297 2.04644 11.0594 1.41675 11.8359 1.41675H28.1641C28.9406 1.41675 29.5703 2.04644 29.5703 2.823V9.698" stroke="white" stroke-width="2" stroke-miterlimit="10" stroke-linecap="round" stroke-linejoin="round"/>
<path d="M15.1172 5.99939C15.7644 5.99939 16.2891 5.47472 16.2891 4.82751C16.2891 4.18031 15.7644 3.65564 15.1172 3.65564C14.47 3.65564 13.9453 4.18031 13.9453 4.82751C13.9453 5.47472 14.47 5.99939 15.1172 5.99939Z" stroke="white" stroke-width="2" stroke-miterlimit="10" stroke-linecap="round" stroke-linejoin="round"/>
<path d="M20 5.99939C20.6472 5.99939 21.1719 5.47472 21.1719 4.82751C21.1719 4.18031 20.6472 3.65564 20 3.65564C19.3528 3.65564 18.8281 4.18031 18.8281 4.82751C18.8281 5.47472 19.3528 5.99939 20 5.99939Z" stroke="white" stroke-width="2" stroke-miterlimit="10" stroke-linecap="round" stroke-linejoin="round"/>
<path d="M24.8828 5.99939C25.53 5.99939 26.0547 5.47472 26.0547 4.82751C26.0547 4.18031 25.53 3.65564 24.8828 3.65564C24.2356 3.65564 23.7109 4.18031 23.7109 4.82751C23.7109 5.47472 24.2356 5.99939 24.8828 5.99939Z" stroke="white" stroke-width="2" stroke-miterlimit="10" stroke-linecap="round" stroke-linejoin="round"/>
<path d="M24.7656 21.573H15.2344C14.6303 21.573 14.1406 21.0833 14.1406 20.4792V12.5105C14.1406 11.9064 14.6303 11.4167 15.2344 11.4167H24.7656C25.3697 11.4167 25.8594 11.9064 25.8594 12.5105V20.4792C25.8594 21.0833 25.3697 21.573 24.7656 21.573Z" stroke="white" stroke-width="2" stroke-miterlimit="10" stroke-linecap="round" stroke-linejoin="round"/>
<path d="M20.873 14.4063C20.7261 14.2975 20.2525 14.0078 19.5835 14.2037C18.8068 14.4312 18.5691 15.4546 19.3416 15.9365C19.6549 16.1321 19.9142 16.1964 20.4772 16.4681C21.8108 17.1117 21.3088 18.8037 19.9668 18.8037C19.533 18.8037 19.0973 18.7293 18.7383 18.473" stroke="white" stroke-width="2" stroke-miterlimit="10" stroke-linecap="round" stroke-linejoin="round"/>
<path d="M19.9668 18.9603V19.4828" stroke="white" stroke-width="2" stroke-miterlimit="10" stroke-linecap="round" stroke-linejoin="round"/>
<path d="M19.9668 13.507V14.0615" stroke="white" stroke-width="2" stroke-miterlimit="10" stroke-linecap="round" stroke-linejoin="round"/>
<path d="M5.82812 25.862V14.0615H9.52234" stroke="white" stroke-width="2" stroke-miterlimit="10" stroke-linecap="round" stroke-linejoin="round"/>
<path d="M8.45703 12.5511L9.81117 14.0615L8.45703 15.572" stroke="white" stroke-width="2" stroke-miterlimit="10" stroke-linecap="round" stroke-linejoin="round"/>
<path d="M29.9746 14.0615H34.223V25.2672" stroke="white" stroke-width="2" stroke-miterlimit="10" stroke-linecap="round" stroke-linejoin="round"/>
<path d="M35.7317 24.2019L34.2213 25.556L32.7109 24.2019" stroke="white" stroke-width="2" stroke-miterlimit="10" stroke-linecap="round" stroke-linejoin="round"/>
<path d="M10.6172 8.448H29.3151" stroke="white" stroke-width="2" stroke-miterlimit="10" stroke-linecap="round" stroke-linejoin="round"/>
</svg>
