<svg width="41" height="41" viewBox="0 0 41 41" fill="none" xmlns="http://www.w3.org/2000/svg">
<g clip-path="url(#clip0_3409_4221)">
<mask id="mask0_3409_4221" style="mask-type:luminance" maskUnits="userSpaceOnUse" x="0" y="0" width="41" height="41">
<path d="M0.5 0.419926H40.5V40.4199H0.5V0.419926Z" fill="white"/>
</mask>
<g mask="url(#mask0_3409_4221)">
<path d="M36.5562 24.2998H32.8102C32.163 24.2998 31.6383 24.8245 31.6383 25.4717C31.6383 26.119 32.163 26.6436 32.8102 26.6436H35.7102C36.5926 26.6436 37.3104 27.3615 37.3104 28.2438C37.3104 29.1262 36.5926 29.844 35.7102 29.844H30.2725C29.6253 29.844 29.1006 30.3687 29.1006 31.0159C29.1006 31.6631 29.6253 32.1878 30.2725 32.1878H34.0185C34.9009 32.1878 35.6187 32.9056 35.6187 33.788C35.6187 34.6704 34.9009 35.3882 34.0185 35.3882H17.1687L12.6953 34.0042V18.274C16.8251 17.7015 20.0151 14.1476 20.0151 9.86287V5.4517H20.8715C22.6408 5.4517 24.0802 6.89108 24.0802 8.66037V14.4157C24.0802 14.7272 24.2043 15.0258 24.4249 15.2458C24.6445 15.4647 24.942 15.5876 25.2521 15.5876H25.2561L34.566 15.5554C35.4483 15.5555 36.1661 16.2732 36.1661 17.1555C36.1661 18.0379 35.4482 18.7557 34.5659 18.7557H31.9643C31.317 18.7557 30.7924 19.2804 30.7924 19.9276C30.7924 20.5747 31.317 21.0994 31.9643 21.0994L36.5562 21.0995C37.4385 21.0996 38.1562 21.8174 38.1562 22.6997C38.1562 23.582 37.4385 24.2998 36.5562 24.2998ZM2.84375 18.3545H10.3516V33.6964H2.84375V18.3545ZM40.5 22.6997C40.5 21.0455 39.4763 19.6259 38.0291 19.0411C38.3355 18.4806 38.5098 17.838 38.5098 17.1555C38.5098 14.9809 36.7406 13.2117 34.562 13.2116L26.424 13.2397V8.66037C26.424 5.59873 23.9331 3.10795 20.8715 3.10795H18.8432C18.196 3.10795 17.6713 3.63256 17.6713 4.27982V9.86287C17.6713 13.2529 14.9134 16.0108 11.5234 16.0108H1.67187C1.02469 16.0108 0.5 16.5354 0.5 17.1826V34.8683C0.5 35.5155 1.02469 36.0402 1.67187 36.0402H11.3463L16.6452 37.6796C16.7573 37.7143 16.8741 37.7319 16.9915 37.7319H34.0185C36.1932 37.7319 37.9624 35.9627 37.9624 33.7879C37.9624 33.0622 37.7653 32.3815 37.4219 31.7967C38.7416 31.1583 39.6541 29.8055 39.6541 28.2438C39.6541 27.3622 39.3634 26.5472 38.8727 25.8897C39.8584 25.1721 40.5 24.0094 40.5 22.6997Z" fill="white"/>
</g>
</g>
<defs>
<clipPath id="clip0_3409_4221">
<rect width="40" height="40" fill="white" transform="translate(0.5 0.419922)"/>
</clipPath>
</defs>
</svg>
