<svg width="65" height="65" viewBox="0 0 65 65" fill="none" xmlns="http://www.w3.org/2000/svg">
<rect x="0.121094" y="0.0193176" width="64" height="64" rx="13.4737" fill="#00AEEF"/>
<rect x="0.682497" y="0.580721" width="62.8772" height="62.8772" rx="12.9123" stroke="white" stroke-opacity="0.06" stroke-width="1.12281"/>
<g clip-path="url(#clip0_3415_6275)">
<mask id="mask0_3415_6275" style="mask-type:luminance" maskUnits="userSpaceOnUse" x="12" y="12" width="41" height="41">
<path d="M12.1211 12.0193H52.1211V52.0193H12.1211V12.0193Z" fill="white"/>
</mask>
<g mask="url(#mask0_3415_6275)">
<path d="M13.6836 24.5193H50.5586" stroke="white" stroke-width="2" stroke-miterlimit="10"/>
<path d="M17.5898 19.8318C17.5898 18.9688 18.2894 18.2693 19.1523 18.2693C20.0153 18.2693 20.7148 18.9688 20.7148 19.8318C20.7148 20.6948 20.0153 21.3943 19.1523 21.3943C18.2894 21.3943 17.5898 20.6948 17.5898 19.8318Z" fill="white"/>
<path d="M23.0586 19.8318C23.0586 18.9688 23.7581 18.2693 24.6211 18.2693C25.4841 18.2693 26.1836 18.9688 26.1836 19.8318C26.1836 20.6948 25.4841 21.3943 24.6211 21.3943C23.7581 21.3943 23.0586 20.6948 23.0586 19.8318Z" fill="white"/>
<path d="M22.9023 39.5974C22.9023 34.506 27.0298 30.3787 32.1211 30.3787C37.2124 30.3787 41.3398 34.506 41.3398 39.5974C41.3398 44.6888 37.2124 48.8162 32.1211 48.8162C27.0298 48.8162 22.9023 44.6888 22.9023 39.5974Z" stroke="white" stroke-width="2" stroke-miterlimit="10"/>
<path d="M47.4336 13.5818H16.8086C14.2239 13.5818 12.1211 15.6846 12.1211 18.2693V45.7693C12.1211 48.354 14.2239 50.4568 16.8086 50.4568H23.4451C22.3355 49.5685 21.3642 48.5145 20.5698 47.3318H16.8086C15.947 47.3318 15.2461 46.6309 15.2461 45.7693V18.2693C15.2461 17.4078 15.947 16.7068 16.8086 16.7068H47.4336C48.2952 16.7068 48.9961 17.4078 48.9961 18.2693V45.7693C48.9961 46.6309 48.2952 47.3318 47.4336 47.3318H43.6724C42.878 48.5145 41.9067 49.5685 40.7971 50.4568H47.4336C50.0183 50.4568 52.1211 48.354 52.1211 45.7693V18.2693C52.1211 15.6846 50.0183 13.5818 47.4336 13.5818Z" fill="white"/>
<path d="M34.232 41.6966C33.0727 42.856 31.193 42.856 30.0336 41.6966C28.8742 40.5373 28.8742 38.6576 30.0336 37.4982C31.193 36.3388 33.0727 36.3388 34.232 37.4982" stroke="white" stroke-width="2" stroke-miterlimit="10"/>
</g>
</g>
<defs>
<clipPath id="clip0_3415_6275">
<rect width="40" height="40" fill="white" transform="translate(12.1211 12.0193)"/>
</clipPath>
</defs>
</svg>
